<svg width="100" height="100" viewBox="0 0 100 100" fill="none" xmlns="http://www.w3.org/2000/svg">
<g clip-path="url(#clip0)">
<path d="M93.3337 26.6667H66.667V50C66.6766 52.9485 67.6632 55.8107 69.4726 58.1388C71.282 60.4669 73.8121 62.1296 76.667 62.8667V86.6667H73.3337C72.4496 86.6667 71.6018 87.0179 70.9766 87.643C70.3515 88.2681 70.0003 89.1159 70.0003 90C70.0003 90.8841 70.3515 91.7319 70.9766 92.357C71.6018 92.9822 72.4496 93.3333 73.3337 93.3333H86.667C87.5511 93.3333 88.3989 92.9822 89.024 92.357C89.6491 91.7319 90.0003 90.8841 90.0003 90C90.0003 89.1159 89.6491 88.2681 89.024 87.643C88.3989 87.0179 87.5511 86.6667 86.667 86.6667H83.3337V62.8667C86.1886 62.1296 88.7186 60.4669 90.528 58.1388C92.3374 55.8107 93.3241 52.9485 93.3337 50V26.6667ZM86.667 50C86.667 51.7681 85.9646 53.4638 84.7144 54.714C83.4641 55.9643 81.7684 56.6667 80.0003 56.6667C78.2322 56.6667 76.5365 55.9643 75.2863 54.714C74.036 53.4638 73.3337 51.7681 73.3337 50V33.3333H86.667V50ZM36.667 16.6667V13.3333C37.551 13.3333 38.3989 12.9821 39.024 12.357C39.6491 11.7319 40.0003 10.8841 40.0003 10C40.0003 9.11595 39.6491 8.2681 39.024 7.64298C38.3989 7.01786 37.551 6.66667 36.667 6.66667V3.33333C36.667 2.44928 36.3158 1.60143 35.6907 0.976311C35.0656 0.35119 34.2177 0 33.3337 0L26.667 0C25.7829 0 24.9351 0.35119 24.31 0.976311C23.6848 1.60143 23.3337 2.44928 23.3337 3.33333V6.66667C22.4496 6.66667 21.6018 7.01786 20.9766 7.64298C20.3515 8.2681 20.0003 9.11595 20.0003 10C20.0003 10.8841 20.3515 11.7319 20.9766 12.357C21.6018 12.9821 22.4496 13.3333 23.3337 13.3333V16.6667C23.3337 26.2 6.66699 37.1333 6.66699 46.6667V86.6667C6.66699 88.4348 7.36937 90.1305 8.61961 91.3807C9.86986 92.631 11.5655 93.3333 13.3337 93.3333H46.667C48.3846 93.1831 49.9945 92.4325 51.2137 91.2133C52.4329 89.9941 53.1835 88.3843 53.3337 86.6667V46.6667C53.3337 37.6667 36.667 25.6667 36.667 16.6667ZM30.0003 80C25.5801 80 21.3408 78.2441 18.2152 75.1184C15.0896 71.9928 13.3337 67.7536 13.3337 63.3333C13.3337 58.9131 15.0896 54.6738 18.2152 51.5482C21.3408 48.4226 25.5801 46.6667 30.0003 46.6667C34.4206 46.6667 38.6598 48.4226 41.7854 51.5482C44.911 54.6738 46.667 58.9131 46.667 63.3333C46.667 67.7536 44.911 71.9928 41.7854 75.1184C38.6598 78.2441 34.4206 80 30.0003 80V80Z" fill="black"/>
</g>
<defs>
<clipPath id="clip0">
<rect width="100" height="100" fill="white"/>
</clipPath>
</defs>
</svg>
