<svg width="100" height="100" viewBox="0 0 100 100" fill="none" xmlns="http://www.w3.org/2000/svg">
<g clip-path="url(#clip0)">
<path d="M53.0996 56.1999V50.6999C53.0996 46.3999 49.5996 42.8999 45.2996 42.8999H43.5996C43.6996 43.3999 43.7996 43.9999 43.7996 44.5999C43.7996 45.9999 43.2996 47.3999 42.5996 48.4999H45.2996C46.5996 48.4999 47.5996 49.4999 47.5996 50.6999V56.4999C47.5996 68.4999 49.3996 79.3999 72.5996 79.3999C95.8996 79.3999 97.5996 68.3999 97.5996 56.1999H53.0996Z" fill="black"/>
<path d="M61.6994 91.8C64.6265 91.8 66.9994 89.4271 66.9994 86.5C66.9994 83.5728 64.6265 81.2 61.6994 81.2C58.7723 81.2 56.3994 83.5728 56.3994 86.5C56.3994 89.4271 58.7723 91.8 61.6994 91.8Z" fill="black"/>
<path d="M83.3 91.8C86.2271 91.8 88.6 89.4271 88.6 86.5C88.6 83.5728 86.2271 81.2 83.3 81.2C80.3729 81.2 78 83.5728 78 86.5C78 89.4271 80.3729 91.8 83.3 91.8Z" fill="black"/>
<path d="M81.9002 31.7C80.8002 31.4 79.6002 32 79.3002 33.2L75.7002 52.5H97.4002C97.5002 42.7 90.9002 34.4 81.9002 31.7Z" fill="black"/>
<path d="M36.4998 40.5001L28.2998 39.4001C28.2998 39.4001 23.0998 31.9001 22.3998 30.9001C21.7998 30.1001 20.6998 28.3001 19.4998 27.4001C17.7998 26.3001 15.7998 25.8001 13.8998 26.2001C11.1998 26.8001 9.1998 29.1001 8.7998 31.8001L6.5998 50.7001C6.4998 51.8001 6.7998 53.0001 7.4998 53.9001L17.0998 67.0001C17.4998 67.6001 17.7998 68.3001 17.8998 69.0001L19.5998 87.0001C19.7998 89.3001 21.1998 91.5001 23.4998 91.8001C23.9998 91.9001 24.3998 91.9001 24.7998 91.8001C26.8998 91.5001 28.7998 89.6001 28.6998 87.5001L27.6998 66.1001C27.6998 65.5001 27.4998 64.9001 27.1998 64.4001C27.1998 64.4001 21.2998 53.3001 20.9998 52.7001C20.6998 52.2001 20.7998 51.5001 20.7998 51.0001C20.7998 50.5001 21.3998 43.0001 21.3998 43.0001L22.8998 45.2001C23.4998 46.1001 24.4998 46.7001 25.4998 46.8001L35.5998 48.2001C35.9998 48.2001 36.2998 48.2001 36.6998 48.2001C38.4998 47.9001 39.8998 46.5001 39.9998 44.5001C40.0998 42.4001 38.4998 40.8001 36.4998 40.5001Z" fill="black"/>
<path d="M17.091 24.204C21.5158 23.5459 24.5693 19.4255 23.9112 15.0008C23.2532 10.576 19.1327 7.52251 14.708 8.18056C10.2833 8.83861 7.22975 12.959 7.8878 17.3838C8.54585 21.8085 12.6663 24.862 17.091 24.204Z" fill="black"/>
<path d="M8.59973 61.7L9.39973 67.5999C9.49973 67.8999 9.39973 68.2999 9.29973 68.6999L2.79973 85.4C1.99973 87.5 2.79973 90.1 4.79973 91.3C5.19973 91.6 5.59973 91.7 6.09973 91.8C8.19973 92.3 10.3997 91.0999 11.2997 89.0999L15.0997 80L14.0997 69.1999L8.59973 61.7Z" fill="black"/>
</g>
<defs>
<clipPath id="clip0">
<rect width="100" height="100" fill="white"/>
</clipPath>
</defs>
</svg>
