<?xml version="1.0" encoding="utf-8"?>
<!-- Generator: Adobe Illustrator 16.0.0, SVG Export Plug-In . SVG Version: 6.00 Build 0)  -->
<!DOCTYPE svg PUBLIC "-//W3C//DTD SVG 1.1//EN" "http://www.w3.org/Graphics/SVG/1.1/DTD/svg11.dtd">
<svg version="1.1" id="Layer_1" xmlns="http://www.w3.org/2000/svg" xmlns:xlink="http://www.w3.org/1999/xlink" x="0px" y="0px"
	 width="130px" height="130px" viewBox="0 0 130 130" enable-background="new 0 0 130 130" xml:space="preserve">
<path fill="#181818" d="M65,0C29.102,0,0,29.102,0,65s29.102,65,65,65s65-29.102,65-65S100.898,0,65,0z M18.388,97.814
	C11.844,88.537,8,77.217,8,65C8,33.52,33.52,8,65,8c12.217,0,23.537,3.844,32.814,10.388L18.388,97.814z M65,122
	c-16.372,0-31.132-6.902-41.528-17.956l80.572-80.572C115.098,33.868,122,48.628,122,65C122,96.48,96.48,122,65,122z"/>
</svg>
