<svg width="88" height="88" viewBox="0 0 88 88" fill="none" xmlns="http://www.w3.org/2000/svg">
<g clip-path="url(#clip0_1230:3651)">
<path d="M30.5994 43.77C30.5994 40.9804 32.861 38.7197 35.6506 38.7197C38.4402 38.7197 40.7018 40.9804 40.7018 43.77C40.7018 46.5596 38.4402 48.8212 35.6506 48.8212C32.861 48.8212 30.5994 46.5596 30.5994 43.77ZM49.3906 48.8212C52.181 48.8212 54.4418 46.5596 54.4418 43.77C54.4418 40.9804 52.181 38.7197 49.3906 38.7197C46.6018 38.7197 44.3402 40.9804 44.3402 43.77C44.3402 46.5596 46.601 48.8212 49.3906 48.8212ZM20.5162 58.7619C22.4866 58.7619 24.0842 57.1643 24.0842 55.1939C24.0842 53.2227 22.4866 51.6251 20.5162 51.6251C18.5458 51.6251 16.9482 53.2227 16.9482 55.1939C16.9482 57.1643 18.5458 58.7619 20.5162 58.7619ZM64.6922 59.1474C66.6634 59.1474 68.261 57.5507 68.261 55.5795C68.261 53.6091 66.6634 52.0107 64.6922 52.0107C62.7218 52.0107 61.1242 53.6091 61.1242 55.5795C61.1242 57.5499 62.7218 59.1474 64.6922 59.1474ZM61.0034 59.4387L59.421 56.1779C57.5602 52.3307 56.3954 49.6907 52.6914 49.6907H46.0938C43.1978 49.6907 41.5898 51.5411 40.1962 54.3091L40.0098 53.4211C40.0098 53.4211 40.8802 51.4187 41.9786 50.5379C41.6082 50.2227 40.1978 49.6899 38.9474 49.6899H32.3498C28.6458 49.6899 27.3914 52.3307 25.5322 56.1771L24.1498 59.0251C25.6898 59.3426 26.5202 60.477 27.3826 62.1418L30.5938 55.9235L28.5562 65.793L27.6658 63.9586C26.3514 61.2418 25.4658 59.3755 22.849 59.3755H18.1858C15.569 59.3755 14.6834 61.241 13.369 63.9586L10.9578 68.9274C10.5994 69.6609 10.8986 70.5585 11.6402 70.8993C12.6082 71.3449 13.3634 70.7449 13.6202 70.2193L16.945 63.7786V82.3624C16.945 83.248 17.6626 83.9672 18.549 83.9672C19.4346 83.9672 20.153 83.2488 20.153 82.3624V72.6585H20.8818V82.3632C20.8818 83.2488 21.6002 83.968 22.4858 83.968C23.3714 83.968 24.0898 83.2496 24.0898 82.3632V63.7794L27.4146 70.2201C27.4586 70.3089 27.5162 70.4001 27.5866 70.4881L27.0554 73.0601H30.593V81.7296C30.593 82.9824 31.6098 84 32.8634 84C34.117 84 35.1338 82.9832 35.1338 81.7296V73.0593H36.1506V81.7112C36.1506 82.9648 37.1674 83.9816 38.421 83.9816C39.6746 83.9816 40.6914 82.9648 40.6914 81.7112V73.0593H44.1402L41.6378 61.161L44.3498 55.9235V81.7112C44.3498 82.9648 45.3666 83.9816 46.6202 83.9816C47.8738 83.9816 48.8906 82.9648 48.8906 81.7112V68.4922H49.9074V81.7288C49.9074 82.9816 50.9234 83.9992 52.1778 83.9992C53.4314 83.9992 54.4482 82.9824 54.4482 81.7288V55.9235L57.8122 62.5642C58.6682 60.9066 59.4906 59.7714 61.0034 59.4387ZM74.253 69.3225L71.8426 64.357C70.529 61.641 69.6442 59.777 67.029 59.777H62.3546C59.7394 59.777 58.8546 61.641 57.541 64.357L55.1314 69.3225C54.7738 70.0553 55.0802 70.9353 55.813 71.2929C56.5458 71.6505 57.433 71.3457 57.7914 70.6129L61.1146 64.177L58.617 76.2753H61.1146V82.3952C61.1146 83.28 61.8314 83.9984 62.7178 83.9984C63.6026 83.9984 64.321 83.2808 64.321 82.3952V76.2753H65.0634V82.3952C65.0634 83.28 65.7802 83.9984 66.6658 83.9984C67.5514 83.9984 68.269 83.2808 68.269 82.3952V76.2753H70.7666L68.269 64.177L71.5914 70.6129C71.949 71.3457 72.837 71.6505 73.5698 71.2929C74.3026 70.9353 74.6106 70.0553 74.253 69.3225ZM63.637 8.69915H42.3714V16.7855H29.6738V8.69915H22.6306L2.5498 30.8213L8.537 31.2893V54.5195L15.7026 55.5147L16.1138 53.9315L10.1242 53.0811V31.4005L43.1346 34.0229L44.6082 32.2029V39.7484L46.1946 38.4133V30.2437L61.6394 11.1663L75.6402 28.4622V52.7723L69.0562 53.9275L69.5674 55.5219L77.2266 54.1915V30.4221L78.5354 32.0389H82.5498L63.637 8.69915ZM43.7274 4H28.3186V7.27917H43.7274V4Z" fill="#55B1EB"/>
</g>
<defs>
<clipPath id="clip0_1230:3651">
<rect width="80" height="80" fill="white" transform="translate(2.5498 4)"/>
</clipPath>
</defs>
</svg>
