<svg width="100" height="100" viewBox="0 0 100 100" fill="none" xmlns="http://www.w3.org/2000/svg">
<path d="M62.1998 30.1H37.7998C36.0998 30.1 34.6998 28.7 34.6998 27V21.4C34.6998 19.7 36.0998 18.3 37.7998 18.3H62.0998C63.7998 18.3 65.1998 19.7 65.1998 21.4V27C65.2998 28.7 63.8998 30.1 62.1998 30.1ZM70.6998 39.3V76.6C70.6998 79.4 68.3998 81.7 65.5998 81.7H34.3998C31.5998 81.7 29.2998 79.4 29.2998 76.6V39.3C29.2998 34.9 32.8998 31.3 37.2998 31.3H62.6998C67.0998 31.3 70.6998 34.9 70.6998 39.3ZM67.1998 42.9001H32.7998V68.3001H67.2998V42.9001H67.1998ZM58.8998 52.5H53.3998V47H46.4998V52.5H40.9998V59.4001H46.4998V64.9001H53.3998V59.4001H58.8998V52.5Z" fill="black"/>
</svg>
