<svg width="100" height="100" viewBox="0 0 100 100" fill="none" xmlns="http://www.w3.org/2000/svg">
<path d="M18.7497 50.0001C24.5026 50.0001 29.1663 45.3364 29.1663 39.5834C29.1663 33.8305 24.5026 29.1667 18.7497 29.1667C12.9967 29.1667 8.33301 33.8305 8.33301 39.5834C8.33301 45.3364 12.9967 50.0001 18.7497 50.0001Z" fill="black"/>
<path d="M37.4997 33.3333C43.2526 33.3333 47.9163 28.6696 47.9163 22.9167C47.9163 17.1637 43.2526 12.5 37.4997 12.5C31.7467 12.5 27.083 17.1637 27.083 22.9167C27.083 28.6696 31.7467 33.3333 37.4997 33.3333Z" fill="black"/>
<path d="M62.4997 33.3333C68.2526 33.3333 72.9163 28.6696 72.9163 22.9167C72.9163 17.1637 68.2526 12.5 62.4997 12.5C56.7467 12.5 52.083 17.1637 52.083 22.9167C52.083 28.6696 56.7467 33.3333 62.4997 33.3333Z" fill="black"/>
<path d="M81.2497 50.0001C87.0026 50.0001 91.6664 45.3364 91.6664 39.5834C91.6664 33.8305 87.0026 29.1667 81.2497 29.1667C75.4967 29.1667 70.833 33.8305 70.833 39.5834C70.833 45.3364 75.4967 50.0001 81.2497 50.0001Z" fill="black"/>
<path d="M72.25 61.9167C68.625 57.6667 65.5834 54.0417 61.9167 49.7917C60 47.5417 57.5417 45.2917 54.625 44.2917C54.1667 44.125 53.7084 44 53.25 43.9167C52.2084 43.75 51.0834 43.75 50 43.75C48.9167 43.75 47.7917 43.75 46.7084 43.9583C46.25 44.0417 45.7917 44.1667 45.3334 44.3333C42.4167 45.3333 40 47.5833 38.0417 49.8333C34.4167 54.0833 31.375 57.7083 27.7084 61.9583C22.25 67.4167 15.5417 73.4583 16.7917 81.9167C18 86.1667 21.0417 90.375 26.5 91.5833C29.5417 92.2083 39.25 89.75 49.5834 89.75H50.3334C60.6667 89.75 70.375 92.1667 73.4167 91.5833C78.875 90.375 81.9167 86.125 83.125 81.9167C84.4167 73.4167 77.7084 67.375 72.25 61.9167V61.9167Z" fill="black"/>
</svg>
