<svg width="130" height="130" viewBox="0 0 130 130" fill="none" xmlns="http://www.w3.org/2000/svg">
<path opacity="0.3" d="M23.3335 74.6666H85.8335V87.1666H23.3335V74.6666ZM100.417 74.6666H106.667V87.1666H100.417V74.6666ZM90.0002 74.6666H96.2502V87.1666H90.0002V74.6666ZM93.5418 40.2083C96.1252 37.6666 97.7085 34.1666 97.7085 30.2916C97.7085 22.5833 91.4585 16.3333 83.7502 16.3333V22.5833C88.0002 22.5833 91.4585 26.0416 91.4585 30.2916C91.4585 34.5416 88.0002 37.9999 83.7502 37.9999V44.2499C93.0835 44.2499 100.417 51.8749 100.417 61.2083V70.4999H106.667V61.1666C106.667 51.9166 101.334 43.9166 93.5418 40.2083ZM81.7918 50.4999H75.4168C71.1668 50.4999 67.7085 46.4166 67.7085 42.1666C67.7085 37.9166 71.1668 34.8749 75.4168 34.8749V28.6249C71.7149 28.6249 68.1645 30.0955 65.5468 32.7132C62.9291 35.3309 61.4585 38.8813 61.4585 42.5833C61.4585 46.2852 62.9291 49.8356 65.5468 52.4533C68.1645 55.071 71.7149 56.5416 75.4168 56.5416H81.7918C86.1668 56.5416 90.0002 59.6249 90.0002 65.0833V70.4999H96.2502V63.6666C96.2502 56.1249 89.5835 50.4999 81.7918 50.4999Z" fill="black"/>
<path d="M23.3335 74.6666H85.8335V87.1666H23.3335V74.6666ZM100.417 74.6666H106.667V87.1666H100.417V74.6666ZM90.0002 74.6666H96.2502V87.1666H90.0002V74.6666ZM93.5418 40.2083C96.1252 37.6666 97.7085 34.1666 97.7085 30.2916C97.7085 22.5833 91.4585 16.3333 83.7502 16.3333V22.5833C88.0002 22.5833 91.4585 26.0416 91.4585 30.2916C91.4585 34.5416 88.0002 37.9999 83.7502 37.9999V44.2499C93.0835 44.2499 100.417 51.8749 100.417 61.2083V70.4999H106.667V61.1666C106.667 51.9166 101.334 43.9166 93.5418 40.2083ZM81.7918 50.4999H75.4168C71.1668 50.4999 67.7085 46.4166 67.7085 42.1666C67.7085 37.9166 71.1668 34.8749 75.4168 34.8749V28.6249C71.7149 28.6249 68.1645 30.0955 65.5468 32.7132C62.9291 35.3309 61.4585 38.8813 61.4585 42.5833C61.4585 46.2852 62.9291 49.8356 65.5468 52.4533C68.1645 55.071 71.7149 56.5416 75.4168 56.5416H81.7918C86.1668 56.5416 90.0002 59.6249 90.0002 65.0833V70.4999H96.2502V63.6666C96.2502 56.1249 89.5835 50.4999 81.7918 50.4999Z" fill="black"/>
<path fill-rule="evenodd" clip-rule="evenodd" d="M122 65C122 96.4802 96.4802 122 65 122C48.6281 122 33.8684 115.098 23.472 104.044L104.044 23.472C115.098 33.8684 122 48.6281 122 65ZM97.815 18.3876C88.5365 11.8436 77.2171 8 65 8C33.5198 8 8 33.5198 8 65C8 77.2171 11.8436 88.5365 18.3876 97.815L97.815 18.3876ZM130 65C130 100.899 100.899 130 65 130C29.1015 130 0 100.899 0 65C0 29.1015 29.1015 0 65 0C100.899 0 130 29.1015 130 65Z" fill="#181818"/>
</svg>
