<svg width="553" height="515" viewBox="0 0 553 515" fill="none" xmlns="http://www.w3.org/2000/svg">
  <path
    d="M386.2 407.375L416.941 444.965C422.86 452.125 427.905 458.495 430.184 462.015C430.184 462.015 430.184 462.015 430.184 462.075C430.815 462.844 431.247 463.737 431.447 464.685C431.447 464.685 431.447 464.745 431.447 464.765C430.367 467.835 369.954 513.265 367.265 514.195C364.575 515.125 361.518 508.125 362.339 504.625C363.16 501.125 377.893 474.155 377.893 474.155L347.595 436.295L386.2 407.375Z"
    fill="#EB9481" />
  <path
    d="M410.633 437.211L416.941 444.921C422.86 452.081 427.905 458.451 430.184 461.971C430.184 461.971 430.184 461.971 430.184 462.031C430.71 462.854 431.134 463.73 431.448 464.641C431.448 464.641 431.448 464.701 431.448 464.721C430.368 467.791 369.955 513.221 367.265 514.151C364.575 515.081 361.519 508.081 362.339 504.581C363.16 501.081 377.894 474.111 377.894 474.111L371.359 466.371L410.633 437.211Z"
    fill="#EBEBEB" />
  <path
    d="M367.287 514.153C369.976 513.233 430.357 467.803 431.469 464.723C431.912 463.553 425.28 455.023 416.941 444.933L416.671 444.613L377.364 473.523L377.915 474.123C377.915 474.123 363.204 501.123 362.361 504.593C361.518 508.063 364.608 515.093 367.287 514.153Z"
    fill="#FFC727" />
  <path
    d="M366.066 511.474C376.046 503.584 417.081 472.644 427.634 465.544C427.721 465.484 427.775 465.544 427.688 465.604C417.967 473.604 376.673 504.264 366.249 511.604C365.958 511.784 365.86 511.644 366.066 511.474Z"
    fill="#263238" />
  <path
    d="M374.739 476.693C378.131 472.983 383.531 469.873 388.91 470.213C389.127 470.213 389.094 470.493 388.91 470.553C384.079 472.292 379.462 474.505 375.139 477.153C375.072 477.177 375 477.18 374.931 477.163C374.863 477.146 374.802 477.109 374.758 477.058C374.713 477.007 374.687 476.944 374.684 476.878C374.681 476.813 374.7 476.748 374.739 476.693Z"
    fill="#263238" />
  <path
    d="M373.26 480.482C376.662 476.772 382.063 473.662 387.442 474.002C387.647 474.002 387.626 474.282 387.442 474.342C382.61 476.077 377.994 478.287 373.67 480.932C373.604 480.966 373.528 480.978 373.454 480.965C373.38 480.953 373.313 480.917 373.264 480.864C373.216 480.81 373.189 480.743 373.188 480.674C373.187 480.604 373.212 480.536 373.26 480.482Z"
    fill="#263238" />
  <path
    d="M371.79 484.273C375.182 480.563 380.583 477.443 385.962 477.783C386.167 477.783 386.146 478.073 385.962 478.133C381.133 479.873 376.516 482.082 372.19 484.723C372.125 484.752 372.051 484.76 371.98 484.746C371.909 484.731 371.846 484.695 371.8 484.643C371.754 484.591 371.728 484.527 371.726 484.46C371.724 484.393 371.747 484.327 371.79 484.273Z"
    fill="#263238" />
  <path
    d="M414.662 440.005L372.59 472.645C372.59 472.645 324.178 415.375 313.257 386.505C305.491 365.935 341.341 262.995 341.341 262.995L387.215 260.125C387.215 260.125 357.522 359.265 360.816 368.895C364.878 380.625 414.662 440.005 414.662 440.005Z"
    fill="#37474F" />
  <path
    d="M367.913 463.273C374.448 458.273 372.493 459.603 379.103 454.653C382.344 452.223 403.569 436.303 407.014 434.523C407.09 434.523 407.176 434.593 407.122 434.653C404.476 437.353 382.938 452.933 379.665 455.303C372.957 460.143 374.826 458.683 368.064 463.453C368.051 463.463 368.037 463.469 368.021 463.473C368.005 463.477 367.989 463.478 367.973 463.477C367.957 463.475 367.942 463.47 367.928 463.463C367.913 463.455 367.901 463.445 367.891 463.433C367.881 463.422 367.874 463.408 367.87 463.394C367.865 463.379 367.864 463.364 367.866 463.349C367.868 463.334 367.873 463.32 367.881 463.307C367.889 463.294 367.9 463.283 367.913 463.273Z"
    fill="#263238" />
  <path
    d="M400.696 432.935C392.854 423.895 385.235 414.675 377.84 405.275C370.495 395.955 363.247 386.495 356.658 376.705C355.07 374.506 353.796 372.126 352.867 369.625C352.009 366.774 351.898 363.774 352.543 360.875C353.569 355.085 354.876 349.325 356.183 343.585C358.818 332.065 361.814 320.619 365.17 309.245C368.518 297.885 372.266 286.625 376.23 275.435C376.716 274.065 377.213 272.685 377.71 271.305C377.786 271.105 377.44 271.025 377.364 271.225C372.914 282.439 368.918 293.792 365.375 305.285C361.832 316.779 358.674 328.295 355.902 339.835C354.519 345.655 353.234 351.502 352.046 357.375C351.31 360.231 350.947 363.159 350.966 366.095C351.181 368.654 351.949 371.146 353.223 373.425C354.588 375.873 356.136 378.228 357.857 380.475C359.6 382.902 361.364 385.322 363.15 387.735C366.75 392.595 370.423 397.405 374.167 402.165C381.62 411.605 389.289 420.955 397.531 429.825C398.535 430.915 399.551 431.995 400.555 433.075C400.588 433.175 400.782 433.035 400.696 432.935Z"
    fill="#263238" />
  <path
    d="M387.259 260.125C387.259 260.125 378.618 289.045 371.143 317.125C362.793 301.125 348.557 273.565 343.772 262.805L387.259 260.125Z"
    fill="#263238" />
  <path
    d="M441.817 326.042L469.231 292.682C475.626 285.892 481.361 280.032 484.634 277.262C484.652 277.255 484.671 277.255 484.688 277.262C485.92 276.262 486.794 275.612 487.205 275.602C487.205 275.602 487.259 275.602 487.281 275.602C490.759 275.992 550.912 321.692 552.425 323.942C553.937 326.192 547.143 330.372 543.276 330.322C539.409 330.272 507.922 322.322 507.922 322.322L478.758 355.692L441.817 326.042Z"
    fill="#EB9481" />
  <path
    d="M487.204 275.562H487.28C490.758 275.963 550.912 321.663 552.424 323.913C553.936 326.163 547.142 330.343 543.286 330.293C539.43 330.243 507.922 322.293 507.922 322.293L502.672 328.982C492.756 321.552 474.675 307.982 463.7 299.452C466.757 295.452 469.231 292.733 469.241 292.723C475.625 285.923 481.35 280.073 484.623 277.312L484.688 277.262C485.919 276.172 486.794 275.572 487.204 275.562Z"
    fill="#EBEBEB" />
  <path
    d="M552.424 323.894C550.912 321.644 490.758 275.944 487.28 275.554C485.963 275.384 478.261 283.104 469.242 292.684L468.961 292.994L507.458 322.874L507.987 322.254C507.987 322.254 539.463 330.254 543.34 330.254C547.218 330.254 553.958 326.134 552.424 323.894Z"
    fill="#FFC727" />
  <path
    d="M549.832 325.533C539.495 318.063 498.536 287.013 488.923 278.903C488.847 278.833 488.923 278.783 488.977 278.843C499.4 286.043 540.089 317.393 549.973 325.383C550.178 325.543 550.048 325.693 549.832 325.533Z"
    fill="#263238" />
  <path
    d="M511.293 324.622C506.691 322.282 502.306 318.002 501.571 313.052C501.571 312.862 501.841 312.832 501.939 312.962C504.742 316.997 508 320.745 511.66 324.142C511.711 324.192 511.742 324.258 511.747 324.327C511.753 324.396 511.732 324.465 511.689 324.521C511.645 324.578 511.582 324.619 511.51 324.637C511.438 324.655 511.361 324.65 511.293 324.622Z"
    fill="#263238" />
  <path
    d="M515.591 325.206C510.99 322.866 506.615 318.586 505.87 313.636C505.87 313.446 506.129 313.416 506.226 313.556C509.029 317.588 512.288 321.333 515.947 324.726C515.987 324.778 516.009 324.84 516.01 324.903C516.01 324.967 515.99 325.029 515.951 325.081C515.912 325.134 515.856 325.174 515.792 325.196C515.728 325.218 515.658 325.222 515.591 325.206Z"
    fill="#263238" />
  <path
    d="M519.89 325.783C515.3 323.443 510.914 319.163 510.169 314.223C510.169 314.023 510.439 313.993 510.536 314.133C513.336 318.167 516.596 321.912 520.258 325.303C520.299 325.356 520.322 325.419 520.322 325.484C520.323 325.549 520.301 325.613 520.261 325.666C520.22 325.719 520.163 325.759 520.096 325.78C520.03 325.801 519.958 325.802 519.89 325.783Z"
    fill="#263238" />
  <path
    d="M342.194 262.904V262.954C342.464 263.814 346.677 277.384 350.836 289.014C353.882 297.504 356.928 304.944 358.397 305.644C360.071 306.424 368.183 309.164 370.905 310.014C370.905 310.014 388.36 365.924 402.899 384.114C407.878 390.354 430.562 396.594 441.655 389.854C467.686 374.054 506.237 332.964 506.237 332.964L461.324 298.964L429.525 337.964C421.65 324.434 417.373 297.124 417.373 297.124C417.373 297.124 415.591 270.124 404.897 258.914L342.194 262.904Z"
    fill="#37474F" />
  <path
    d="M495.414 337.925C488.653 333.165 490.521 334.615 483.814 329.785C480.573 327.415 458.97 311.865 456.335 309.155C456.325 309.141 456.32 309.125 456.321 309.108C456.321 309.092 456.328 309.076 456.338 309.063C456.349 309.05 456.363 309.04 456.38 309.035C456.397 309.03 456.415 309.03 456.432 309.035C459.877 310.805 481.135 326.705 484.375 329.125C490.975 334.075 489.02 332.725 495.566 337.745C495.578 337.754 495.589 337.765 495.597 337.778C495.605 337.791 495.61 337.806 495.612 337.82C495.614 337.835 495.613 337.85 495.609 337.865C495.605 337.879 495.597 337.893 495.587 337.905C495.577 337.916 495.565 337.926 495.551 337.934C495.537 337.941 495.521 337.946 495.505 337.948C495.489 337.95 495.473 337.948 495.457 337.944C495.442 337.941 495.427 337.934 495.414 337.925Z"
    fill="#263238" />
  <path
    d="M403.59 290.504C402.143 290.254 400.62 290.244 399.162 290.124C397.974 290.024 396.796 289.904 395.619 289.744C393.375 289.52 391.213 288.837 389.289 287.744C387.183 286.434 386.049 284.304 384.882 282.254C384.212 281.044 383.532 279.834 382.841 278.634L381.814 276.894C381.355 276.22 380.937 275.522 380.562 274.804C380.562 274.704 380.335 274.804 380.389 274.864C380.627 275.359 380.833 275.866 381.004 276.384C381.242 276.974 381.469 277.574 381.717 278.164C382.149 279.164 382.581 280.264 383.046 281.314C383.769 283.243 384.737 285.086 385.93 286.804C388.295 289.804 392.216 290.854 396.073 291.064C397.153 291.114 398.287 291.124 399.389 291.114C400.787 291.15 402.186 291.069 403.569 290.874C403.622 290.877 403.674 290.86 403.713 290.827C403.753 290.794 403.777 290.748 403.779 290.699C403.782 290.65 403.764 290.602 403.728 290.565C403.693 290.529 403.643 290.507 403.59 290.504Z"
    fill="#263238" />
  <path
    d="M354.076 303.973C359.839 305.519 365.444 307.526 370.83 309.973C370.852 309.981 370.873 309.993 370.891 310.008C370.909 310.024 370.923 310.042 370.933 310.062C370.943 310.083 370.948 310.105 370.949 310.127C370.95 310.15 370.946 310.172 370.938 310.193C370.929 310.214 370.916 310.233 370.9 310.25C370.883 310.266 370.863 310.279 370.841 310.289C370.819 310.298 370.795 310.303 370.771 310.304C370.747 310.305 370.723 310.301 370.7 310.293C365.072 308.463 359.348 306.733 353.828 304.613C353.736 304.583 353.662 304.52 353.62 304.438C353.578 304.357 353.574 304.263 353.607 304.178C353.64 304.093 353.708 304.024 353.796 303.986C353.884 303.947 353.985 303.943 354.076 303.973Z"
    fill="#263238" />
  <path
    d="M349.928 269.376C349.928 269.196 350.263 269.136 350.274 269.326C350.674 275.326 351.473 280.606 352.434 286.186C352.888 288.786 356.204 303.056 361.011 301.696C361.821 301.466 362.177 300.696 362.231 299.546C362.098 298.055 361.772 296.585 361.259 295.166C360.492 292.166 359.833 289.166 359.337 286.166C358.34 280.526 357.978 274.805 358.256 269.096C358.266 269.064 358.286 269.036 358.314 269.016C358.343 268.995 358.377 268.984 358.413 268.984C358.449 268.984 358.484 268.995 358.512 269.016C358.54 269.036 358.56 269.064 358.57 269.096C359.005 276.978 360.088 284.817 361.81 292.546C362.696 296.256 365.148 301.776 360.957 302.616C356.766 303.456 353.201 294.196 352.488 291.616C350.602 284.336 349.741 276.861 349.928 269.376Z"
    fill="#263238" />
  <path
    d="M360.903 302.113C361.408 303.06 361.849 304.035 362.221 305.033C362.591 305.797 362.807 306.617 362.858 307.453C362.852 307.486 362.836 307.517 362.811 307.542C362.787 307.567 362.756 307.585 362.721 307.595C362.686 307.604 362.649 307.604 362.614 307.595C362.579 307.586 362.548 307.568 362.523 307.543C361.959 306.838 361.518 306.055 361.216 305.223C360.773 304.323 360.309 303.433 359.899 302.523C359.854 302.402 359.86 302.27 359.915 302.153C359.97 302.036 360.071 301.943 360.197 301.891C360.324 301.839 360.466 301.834 360.597 301.875C360.728 301.916 360.837 302.001 360.903 302.113Z"
    fill="#263238" />
  <path
    d="M456.583 313.592C449.684 322.779 442.364 331.706 434.623 340.372C432.528 342.692 430.396 344.986 428.229 347.252C421.197 338.252 417.773 327.492 415.04 316.772C414.338 314.022 413.679 311.262 412.998 308.502C412.156 305.57 411.474 302.599 410.957 299.602C410.536 296.492 410.719 293.322 410.417 290.192C410.107 287.165 409.591 284.159 408.872 281.192C407.232 274.469 404.752 267.945 401.484 261.752C401.484 261.672 401.29 261.752 401.322 261.812C403.973 267.518 406.139 273.406 407.803 279.422C408.605 282.482 409.204 285.585 409.596 288.712C409.985 291.862 409.942 295.012 410.168 298.172C410.518 301.169 411.125 304.135 411.983 307.042C412.664 309.792 413.323 312.552 414.003 315.302C415.283 320.736 416.884 326.101 418.799 331.372C420.907 337.258 423.986 342.807 427.926 347.822C427.956 347.86 427.995 347.89 428.04 347.911C428.085 347.932 428.135 347.942 428.185 347.942C428.236 347.942 428.285 347.932 428.33 347.911C428.375 347.89 428.414 347.86 428.445 347.822C436.373 339.392 443.945 330.662 450.955 321.522C452.957 318.922 454.919 316.296 456.842 313.642C456.939 313.582 456.691 313.452 456.583 313.592Z"
    fill="#263238" />
  <path
    d="M429.86 337.744C429.592 338.135 429.347 338.539 429.125 338.954L428.898 339.114C428.749 339.214 428.612 339.328 428.488 339.454C428.248 339.713 428.038 339.994 427.861 340.294C427.539 340.918 427.377 341.603 427.386 342.294C427.488 341.643 427.73 341.017 428.099 340.454C428.263 340.178 428.455 339.917 428.672 339.674C428.735 339.612 428.793 339.545 428.844 339.474C428.844 339.554 428.758 339.624 428.726 339.714C428.45 340.458 428.255 341.225 428.142 342.004C428.034 342.741 428.034 343.488 428.142 344.224C428.223 344.953 428.379 345.673 428.607 346.374H428.661C428.661 345.634 428.563 344.904 428.661 344.154C428.758 343.404 428.909 342.714 429.017 341.994C429.122 341.29 429.27 340.592 429.46 339.904C429.644 339.204 429.795 338.474 430.022 337.774C430.043 337.714 429.914 337.674 429.86 337.744Z"
    fill="#263238" />
  <path
    d="M380.399 195.051C371.92 200.711 332.3 215.621 317.858 208.881C303.147 202.001 288.575 165.051 285.681 161.881C277.741 153.101 311.885 140.661 315.007 146.751C320.224 156.921 331.306 184.081 336.394 184.671C347.098 185.911 356.917 184.621 373.659 184.431C385.4 184.281 389.721 188.801 380.399 195.051Z"
    fill="#B76F5F" />
  <path
    d="M318.593 153.461C318.593 153.461 332.484 182.461 335.616 183.261C340.833 184.641 369.101 183.731 379.254 183.891C389.408 184.051 399.183 192.371 375.139 200.681C351.095 208.991 330.853 213.321 317.772 210.601C309.649 208.901 287.344 176.301 287.344 176.301L318.593 153.461Z"
    fill="#FFD427" />
  <path opacity="0.1"
    d="M318.593 153.461C318.593 153.461 332.484 182.461 335.616 183.261C340.833 184.641 369.101 183.731 379.254 183.891C389.408 184.051 399.183 192.371 375.139 200.681C351.095 208.991 330.853 213.321 317.772 210.601C309.649 208.901 287.344 176.301 287.344 176.301L318.593 153.461Z"
    fill="black" />
  <path
    d="M293.393 181.615C304.529 171.895 317.772 163.335 319.965 161.685C320.073 161.605 320.192 161.775 320.084 161.855C317.837 163.365 303.817 174.755 293.512 181.855C293.393 181.885 293.285 181.705 293.393 181.615Z"
    fill="#263238" />
  <path opacity="0.1"
    d="M390.078 190.523C389.646 193.463 385.595 197.073 375.139 200.683C351.106 209.003 330.853 213.323 317.783 210.603C316.163 210.263 313.97 208.693 311.507 206.383C330.032 202.683 374.696 193.783 390.078 190.523Z"
    fill="black" />
  <path
    d="M287.874 165.183C291.222 167.493 314.878 154.603 315.418 150.673C315.469 149.329 315.331 147.984 315.007 146.673C315.007 146.673 316.671 137.973 320.84 131.183C324.329 125.483 330.216 117.383 326.975 115.533C322.255 112.813 313.484 122.233 308.796 127.913C307.133 124.343 305.351 121.423 303.622 120.063C297.908 115.613 273.065 136.673 274.491 143.593C275.884 150.273 284.525 162.883 287.874 165.183Z"
    fill="#B76F5F" />
  <path
    d="M310.935 128.653C309.595 132.033 306.052 128.653 306.052 128.653C306.052 128.653 309.876 134.653 307.035 137.653C304.195 140.653 300.176 136.293 299.874 135.993C300.068 136.313 303.428 141.933 300.241 144.673C297.055 147.413 293.577 142.593 293.361 142.273C293.447 142.633 294.495 147.373 291.557 148.943C286.512 151.633 283.488 139.573 279.394 137.423C279.394 137.423 274.663 143.423 274.48 143.593C274.48 143.593 271.347 132.173 274.793 127.213C275.28 126.483 276.023 125.929 276.897 125.643C277.771 125.358 278.725 125.358 279.6 125.643C279.6 125.643 278.152 122.063 280.582 119.843C281.835 118.703 284.903 119.543 284.903 119.543C284.903 119.543 283.823 116.633 286.167 114.773C288.003 113.283 290.812 114.363 290.812 114.363C290.812 114.363 291.222 111.143 293.631 110.193C298.491 108.253 313.797 121.373 310.935 128.653Z"
    fill="#B76F5F" />
  <path
    d="M291.309 114.474C291.309 114.474 291.309 114.354 291.363 114.384C297.795 117.676 302.993 122.702 306.269 128.794C306.366 128.994 306.063 129.224 305.912 129.034C301.832 123.551 296.913 118.647 291.309 114.474Z"
    fill="#263238" />
  <path
    d="M284.881 119.443C284.816 119.443 284.881 119.303 284.968 119.343C291.319 122.663 297.595 128.743 300.176 136.003C300.263 136.253 300.068 136.553 299.949 136.273C297.832 131.573 290.196 123.293 284.881 119.443Z"
    fill="#263238" />
  <path
    d="M293.35 142.833C290.585 135.963 285.724 130.603 279.87 125.763C279.794 125.703 279.87 125.613 279.978 125.643C283.532 127.293 286.923 130.733 289.31 133.643C291.581 136.288 293.07 139.434 293.631 142.773C293.588 142.883 293.415 142.983 293.35 142.833Z"
    fill="#263238" />
  <path
    d="M306.182 128.656C306.301 128.896 305.804 128.796 305.912 129.036C306.376 130.036 308.591 136.296 306.527 137.656C304.864 138.746 302.131 137.436 301.3 136.546L299.193 134.376L300.338 137.146C300.854 138.37 301.15 139.664 301.213 140.976C301.282 141.582 301.212 142.195 301.007 142.774C300.803 143.353 300.468 143.885 300.025 144.336C299.608 144.75 299.049 145.019 298.444 145.097C297.838 145.175 297.222 145.058 296.698 144.766C295.536 144.095 294.58 143.158 293.922 142.046L291.978 139.046L292.745 142.456C292.957 143.406 293.041 144.377 292.993 145.346C292.981 146.267 292.677 147.164 292.118 147.926C291.851 148.259 291.49 148.515 291.073 148.667C290.657 148.819 290.204 148.861 289.764 148.786C288.806 148.482 287.96 147.934 287.322 147.206C285.929 145.632 284.669 143.96 283.553 142.206C282.948 141.346 282.354 140.476 281.706 139.636C281.111 138.761 280.323 138.011 279.394 137.436C280.236 138.093 280.933 138.895 281.446 139.796C282.019 140.666 282.526 141.566 283.067 142.476C284.076 144.327 285.273 146.085 286.642 147.726C287.364 148.638 288.359 149.333 289.504 149.726C290.148 149.872 290.824 149.841 291.45 149.637C292.075 149.432 292.623 149.064 293.026 148.576C293.759 147.645 294.17 146.529 294.203 145.376C294.279 144.295 294.202 143.209 293.976 142.146L292.81 142.556C293.562 143.882 294.68 145 296.05 145.796C296.821 146.226 297.732 146.389 298.621 146.256C299.485 146.104 300.279 145.713 300.9 145.136C301.465 144.569 301.892 143.896 302.153 143.163C302.414 142.43 302.502 141.654 302.412 140.886C302.31 139.44 301.945 138.02 301.332 136.686L300.371 137.226C301.451 138.316 304.356 140.086 307.154 138.706C310.578 136.376 306.938 129.816 306.182 128.656Z"
    fill="#263238" />
  <path
    d="M306.052 128.636C306.714 129.068 307.442 129.405 308.213 129.636C308.517 129.733 308.844 129.753 309.159 129.693C309.475 129.634 309.767 129.496 310.006 129.296C310.464 128.794 310.753 128.178 310.837 127.526C310.967 126.806 311.075 126.046 311.14 125.266C311.499 125.997 311.683 126.792 311.68 127.596C311.708 128.037 311.641 128.479 311.484 128.896C311.326 129.313 311.081 129.697 310.762 130.026C310.371 130.356 309.881 130.569 309.358 130.636C308.859 130.67 308.359 130.58 307.91 130.376C307.106 129.994 306.455 129.384 306.052 128.636Z"
    fill="#263238" />
  <path
    d="M410.611 274.373C410.384 274.533 340.704 267.373 340.131 266.543C339.332 265.323 360.093 198.453 376.036 184.723C380.021 181.293 391.05 182.823 395.478 187.253C417.47 209.243 411.4 273.803 410.611 274.373Z"
    fill="#EBEBEB" />
  <path
    d="M375.431 184.742L348.675 275.042L334.99 265.952C334.99 265.952 357.316 207.452 363.797 198.142C370.278 188.832 375.431 184.742 375.431 184.742Z"
    fill="#FFC727" />
  <path opacity="0.1"
    d="M375.431 184.742L348.675 275.042L334.99 265.952C334.99 265.952 357.316 207.452 363.797 198.142C370.278 188.832 375.431 184.742 375.431 184.742Z"
    fill="black" />
  <path
    d="M391.19 184.102C391.19 184.102 390.11 218.842 390.11 227.002C390.11 235.162 388.068 279.722 388.068 279.722L419.771 274.372C419.771 274.372 413.981 231.162 411.972 221.182C409.963 211.202 401.473 187.042 391.19 184.102Z"
    fill="#FFC727" />
  <path opacity="0.1"
    d="M391.19 184.102C391.19 184.102 390.11 218.842 390.11 227.002C390.11 235.162 388.068 279.722 388.068 279.722L419.771 274.372C419.771 274.372 413.981 231.162 411.972 221.182C409.963 211.202 401.473 187.042 391.19 184.102Z"
    fill="black" />
  <path
    d="M398.708 203.636C417.135 221.106 441.558 239.796 455.135 237.126C467.416 234.706 485.066 221.376 504.325 207.006C508.149 204.156 482.625 177.776 478.877 181.196C471.499 187.926 456.356 205.106 450.707 207.006C448.287 207.816 421.197 195.286 403.439 189.006C381.879 181.376 391.363 196.676 398.708 203.636Z"
    fill="#B76F5F" />
  <path
    d="M521.241 194.852C516.186 200.482 498.644 211.042 494.237 211.612C489.83 212.182 474.643 188.702 476.328 184.732C478.013 180.762 496.603 163.012 504.509 161.502C512.416 159.992 526.48 189.012 521.241 194.852Z"
    fill="#B76F5F" />
  <path
    d="M492.811 166.081C492.196 169.911 497.434 168.401 497.434 168.401C497.434 168.401 490.457 172.261 491.472 176.401C492.455 180.401 498.709 178.401 499.163 178.251C498.795 178.461 492.487 182.171 493.978 186.251C495.523 190.521 501.42 187.481 501.809 187.251C501.528 187.551 497.899 191.531 499.789 194.411C503.03 199.411 512.632 189.411 517.709 189.351C517.709 189.351 520.787 194.961 520.874 195.181C520.874 195.181 528.23 188.241 527.744 181.911C527.7 180.986 527.311 180.104 526.644 179.414C525.976 178.725 525.07 178.271 524.082 178.131C524.082 178.131 527.452 175.441 526.393 172.131C525.842 170.451 522.462 169.771 522.462 169.771C522.462 169.771 525.054 167.511 523.92 164.661C523.023 162.381 519.772 162.051 519.772 162.051C519.772 162.051 521.176 158.811 519.437 156.761C515.948 152.771 494.151 157.861 492.811 166.081Z"
    fill="#B76F5F" />
  <path
    d="M519.264 162.083C519.276 162.078 519.285 162.07 519.292 162.061C519.299 162.051 519.303 162.039 519.303 162.028C519.303 162.016 519.299 162.005 519.292 161.995C519.285 161.985 519.276 161.977 519.264 161.973C511.354 162.004 503.642 164.264 497.153 168.453C496.948 168.593 497.099 168.953 497.359 168.843C504.267 165.617 511.646 163.339 519.264 162.083Z"
    fill="#263238" />
  <path
    d="M522.58 169.851C522.666 169.851 522.645 169.711 522.58 169.711C514.738 169.811 505.416 172.551 498.924 178.171C498.708 178.361 498.719 178.741 498.989 178.541C503.558 175.101 515.386 170.941 522.58 169.851Z"
    fill="#263238" />
  <path
    d="M501.496 187.893C507.976 182.723 515.538 179.993 523.757 178.223C523.865 178.223 523.822 178.063 523.757 178.053C519.437 177.903 514.36 179.543 510.493 181.123C506.872 182.529 503.713 184.791 501.333 187.683C501.204 187.793 501.355 188.003 501.496 187.893Z"
    fill="#263238" />
  <path
    d="M497.434 168.375C496.166 169.224 494.99 170.185 493.924 171.245C492.836 172.227 492.049 173.459 491.645 174.815C491.499 175.446 491.611 176.105 491.958 176.665C492.312 177.228 492.819 177.697 493.427 178.025C494.063 178.303 494.754 178.456 495.457 178.473C496.16 178.49 496.859 178.372 497.51 178.125L500.75 177.025L498.136 179.095C496.964 180 495.96 181.078 495.166 182.285C494.764 182.827 494.491 183.44 494.362 184.087C494.234 184.733 494.254 185.397 494.421 186.035C494.585 186.624 494.962 187.143 495.488 187.507C496.014 187.87 496.659 188.057 497.316 188.035C498.786 187.952 500.209 187.526 501.453 186.795L504.963 184.885L502.338 187.735C501.605 188.532 500.984 189.412 500.491 190.355C499.991 191.229 499.777 192.22 499.876 193.205C499.942 193.646 500.141 194.061 500.448 194.403C500.755 194.746 501.159 195.003 501.615 195.145C502.688 195.322 503.794 195.211 504.801 194.825C506.992 194.019 509.112 193.056 511.142 191.945C512.222 191.415 513.237 190.885 514.317 190.395C515.365 189.841 516.529 189.5 517.73 189.395C516.574 189.612 515.474 190.033 514.49 190.635C513.41 191.195 512.47 191.795 511.466 192.395C509.479 193.661 507.367 194.749 505.157 195.645C503.971 196.153 502.648 196.327 501.355 196.145C500.665 195.976 500.042 195.623 499.564 195.131C499.087 194.639 498.774 194.029 498.666 193.375C498.503 192.154 498.732 190.916 499.325 189.815C499.859 188.761 500.534 187.773 501.334 186.875L502.219 187.825C500.762 188.713 499.079 189.233 497.337 189.335C496.371 189.362 495.425 189.08 494.658 188.535C493.923 187.979 493.388 187.229 493.125 186.385C492.913 185.578 492.887 184.739 493.049 183.922C493.211 183.106 493.557 182.33 494.064 181.645C494.963 180.329 496.087 179.158 497.391 178.175L498.007 179.175C497.188 179.458 496.312 179.571 495.44 179.507C494.569 179.443 493.723 179.203 492.963 178.805C492.232 178.366 491.637 177.76 491.234 177.045C490.832 176.309 490.732 175.464 490.953 174.665C491.468 173.225 492.407 171.947 493.665 170.975C494.812 169.98 496.076 169.108 497.434 168.375Z"
    fill="#263238" />
  <path
    d="M478.877 181.192C478.877 181.192 488.415 151.402 499.162 160.562C502.403 163.282 511.962 177.982 508.819 179.832C504.747 182.212 499.497 176.762 496.786 172.832C496.786 172.832 495.079 183.382 486.794 184.482C485.276 184.66 483.733 184.448 482.336 183.867C480.939 183.287 479.742 182.361 478.877 181.192Z"
    fill="#B76F5F" />
  <path
    d="M498.222 159.852C499.609 160.781 500.843 161.893 501.884 163.152C502.961 164.388 503.946 165.691 504.832 167.052C506.659 169.746 508.227 172.584 509.52 175.532C509.859 176.316 510.078 177.141 510.168 177.982C510.215 178.466 510.148 178.953 509.974 179.412C509.875 179.664 509.733 179.901 509.553 180.112C509.37 180.314 509.155 180.489 508.915 180.632C508.036 181.127 506.994 181.315 505.977 181.162C505.05 181.003 504.159 180.698 503.342 180.262C501.82 179.408 500.468 178.319 499.345 177.042C498.223 175.821 497.201 174.524 496.288 173.162L497.369 172.932C497.127 174.13 496.765 175.305 496.288 176.442C495.826 177.569 495.236 178.649 494.528 179.662C493.815 180.674 492.945 181.584 491.946 182.362C490.957 183.135 489.816 183.726 488.587 184.102C489.724 183.595 490.764 182.92 491.665 182.102C492.538 181.271 493.286 180.336 493.89 179.322C494.497 178.312 494.996 177.25 495.381 176.152C495.763 175.063 496.038 173.946 496.202 172.812L496.386 171.412L497.282 172.582C498.22 173.857 499.245 175.076 500.35 176.232C501.407 177.376 502.654 178.358 504.044 179.142C505.372 179.832 507.036 180.202 508.138 179.542C509.164 179.042 508.764 177.352 508.246 175.962C507.68 174.504 507.031 173.075 506.301 171.682C505.599 170.262 504.865 168.852 504.065 167.482C502.402 164.762 500.728 161.982 498.222 159.852Z"
    fill="#263238" />
  <path
    d="M475.129 184.562C475.129 184.562 452.792 205.652 449.53 205.462C444.129 205.142 411.303 190.732 401.679 187.732C392.055 184.732 381.739 186.503 396.948 203.143C414.111 221.913 433.327 238.632 453.191 238.652C463.896 238.652 497.229 217.113 497.229 217.113L475.129 184.562Z"
    fill="#FFC727" />
  <path opacity="0.1"
    d="M475.129 184.562C475.129 184.562 452.792 205.652 449.53 205.462C444.129 205.142 411.303 190.732 401.679 187.732C392.055 184.732 381.739 186.503 396.948 203.143C414.111 221.913 433.327 238.632 453.191 238.652C463.896 238.652 497.229 217.113 497.229 217.113L475.129 184.562Z"
    fill="black" />
  <path
    d="M488.695 218.905C481.717 206.285 472.342 194.125 470.862 191.905C470.797 191.795 470.624 191.905 470.7 192.025C472.266 194.145 481.361 209.225 488.512 219.025C488.598 219.155 488.771 219.025 488.695 218.905Z"
    fill="#263238" />
  <path
    d="M411.194 217.431C410.687 216.937 410.211 216.416 409.768 215.871C409.239 215.341 408.688 214.811 408.181 214.281C407.1 213.281 406.117 212.281 405.091 211.211C403.05 209.161 400.879 207.211 398.762 205.211C400.695 207.371 402.596 209.541 404.692 211.571L404.832 211.711L403.601 210.941C402.747 210.411 401.894 209.881 401.052 209.341C401.052 209.341 400.944 209.391 400.987 209.421C401.775 210.021 402.585 210.591 403.439 211.121C403.871 211.391 404.303 211.651 404.756 211.901L405.383 212.241L407.749 214.511C408.289 215.021 408.829 215.511 409.39 216.031C409.952 216.551 410.622 216.931 411.119 217.481C411.14 217.621 411.324 217.501 411.194 217.431Z"
    fill="#263238" />
  <path
    d="M377.753 196.984C381.058 197.724 389.203 193.204 392.94 188.834C393.188 188.534 393.275 184.964 393.61 180.634C393.815 178.004 394.117 175.084 394.603 172.434L375.938 173.664C376.354 177.132 376.311 180.635 375.809 184.094C375.739 184.459 375.631 184.818 375.485 185.164C375.485 185.214 375.485 185.274 375.485 185.344C374.685 187.374 372.579 195.824 377.753 196.984Z"
    fill="#B76F5F" />
  <path
    d="M375.495 185.163C375.464 185.22 375.442 185.281 375.431 185.343C376.027 185.516 376.637 185.643 377.256 185.723C387.496 187.103 392.087 175.983 393.253 172.523L375.971 173.653C376.394 177.128 376.358 180.637 375.863 184.103C375.771 184.465 375.649 184.82 375.495 185.163Z"
    fill="#263238" />
  <path
    d="M402.888 152.564C403.158 158.794 395.133 174.684 389.646 177.324C381.685 181.154 371.002 179.114 368.042 170.754C365.212 162.644 376.057 142.114 381.976 139.944C390.726 136.734 402.489 143.374 402.888 152.564Z"
    fill="#B76F5F" />
  <path
    d="M387.831 155.955C387.396 155.623 386.982 155.27 386.589 154.895C386.081 154.587 385.701 154.129 385.509 153.595C385.488 153.418 385.53 153.238 385.63 153.085C385.729 152.931 385.88 152.812 386.06 152.745C386.434 152.666 386.825 152.681 387.191 152.788C387.558 152.896 387.887 153.091 388.144 153.355C388.756 153.813 389.161 154.466 389.278 155.185C389.29 155.346 389.253 155.507 389.171 155.649C389.089 155.791 388.965 155.909 388.814 155.989C388.664 156.069 388.491 156.109 388.317 156.103C388.144 156.097 387.975 156.046 387.831 155.955Z"
    fill="black" />
  <path
    d="M376.295 151.372C376.856 151.502 377.375 151.532 377.969 151.612C378.544 151.768 379.158 151.747 379.719 151.552C379.881 151.457 380.005 151.316 380.074 151.15C380.142 150.984 380.15 150.802 380.097 150.632C379.93 150.309 379.672 150.035 379.351 149.836C379.03 149.637 378.657 149.522 378.271 149.502C377.502 149.339 376.695 149.454 376.014 149.822C375.864 149.913 375.746 150.043 375.675 150.196C375.603 150.349 375.581 150.517 375.61 150.681C375.64 150.845 375.721 150.998 375.842 151.12C375.964 151.243 376.121 151.33 376.295 151.372Z"
    fill="black" />
  <path
    d="M381.145 168.231C380.763 168.455 380.306 168.543 379.859 168.481C379.428 168.3 379.041 168.037 378.725 167.711H378.649C378.721 167.991 378.871 168.247 379.086 168.455C379.301 168.662 379.571 168.813 379.87 168.891C380.135 168.931 380.406 168.897 380.649 168.791C380.892 168.686 381.095 168.515 381.231 168.301C381.285 168.271 381.199 168.211 381.145 168.231Z"
    fill="#263238" />
  <path
    d="M381.425 164.501C380.928 164.813 380.365 165.027 379.774 165.126C379.182 165.226 378.575 165.211 377.99 165.081C377.481 164.974 376.991 164.802 376.532 164.571C376.441 164.532 376.354 164.485 376.273 164.431C376.187 164.394 376.107 164.347 376.035 164.291C375.978 164.257 375.934 164.206 375.91 164.146C375.887 164.086 375.885 164.021 375.906 163.961C375.919 163.922 375.937 163.886 375.96 163.851V163.761C376.327 162.911 377.04 161.681 377.04 161.681C376.64 161.681 374.642 161.681 374.879 161.301C376.732 157.578 378.99 154.039 381.62 150.741C381.695 150.631 381.89 150.741 381.814 150.851C380.129 154.301 377.796 157.461 376.035 160.901C376.763 160.875 377.491 160.949 378.196 161.121C378.304 161.201 376.835 163.481 376.705 163.881C377.414 164.243 378.194 164.47 378.999 164.547C379.805 164.624 380.619 164.551 381.393 164.331C381.468 164.371 381.533 164.441 381.425 164.501Z"
    fill="#263238" />
  <path
    d="M377.256 164.375C377.473 165.168 377.909 165.895 378.52 166.485C378.865 166.799 379.307 167.005 379.784 167.075C380.864 167.225 381.22 166.435 381.361 165.685C381.433 165.285 381.454 164.879 381.426 164.475C380.06 164.853 378.599 164.818 377.256 164.375Z"
    fill="#263238" />
  <path
    d="M378.52 166.473C378.865 166.787 379.306 166.993 379.784 167.063C380.864 167.213 381.22 166.423 381.361 165.673C380.859 165.494 380.306 165.475 379.791 165.62C379.277 165.765 378.829 166.065 378.52 166.473Z"
    fill="#FF9BBC" />
  <path
    d="M386.48 158.603C386.546 158.289 386.52 157.964 386.405 157.663C386.329 157.501 386.22 157.355 386.083 157.233C385.945 157.111 385.783 157.016 385.605 156.953C385.425 156.902 385.234 156.889 385.047 156.915C384.86 156.941 384.682 157.005 384.525 157.103C384.251 157.282 384.025 157.519 383.866 157.793C383.776 157.962 383.697 158.135 383.629 158.313C383.483 158.677 383.431 159.067 383.478 159.453C383.564 159.183 383.679 158.921 383.823 158.673C383.956 158.451 384.104 158.237 384.266 158.033C384.601 157.623 385.044 157.333 385.443 157.493C385.654 157.587 385.827 157.743 385.934 157.936C386.041 158.129 386.077 158.349 386.038 158.563C386.01 159.102 385.927 159.638 385.789 160.163C386.144 159.698 386.38 159.165 386.48 158.603Z"
    fill="#263238" />
  <path
    d="M375.096 153.773C375.3 153.517 375.572 153.314 375.884 153.183C376.055 153.116 376.239 153.082 376.424 153.082C376.61 153.082 376.794 153.116 376.965 153.183C377.137 153.267 377.286 153.386 377.4 153.532C377.514 153.677 377.591 153.845 377.623 154.023C377.669 154.332 377.636 154.647 377.526 154.943C377.467 155.122 377.391 155.296 377.299 155.463C377.114 155.812 376.844 156.116 376.511 156.353C376.667 156.111 376.79 155.852 376.878 155.583C376.963 155.341 377.028 155.094 377.073 154.843C377.159 154.333 377.073 153.843 376.684 153.683C376.463 153.605 376.222 153.596 375.995 153.658C375.769 153.719 375.571 153.847 375.431 154.023C375.025 154.415 374.664 154.844 374.351 155.303C374.464 154.745 374.719 154.221 375.096 153.773Z"
    fill="#263238" />
  <path
    d="M376.64 144.264C381.393 150.364 392.356 147.184 392.356 147.184C392.4 148.637 392.95 150.038 393.923 151.178C394.896 152.319 396.241 153.138 397.757 153.514C397.757 153.514 395.165 163.794 397.984 164.704C402.304 166.114 408.785 153.104 408.504 150.004C408.224 146.904 404.81 145.004 404.81 145.004C405.033 143.269 404.535 141.521 403.417 140.114C401.257 137.114 390.109 136.494 390.109 136.494C390.015 135.054 389.56 133.654 388.781 132.404C388.596 132.096 388.345 131.826 388.043 131.611C387.742 131.395 387.396 131.239 387.027 131.151C386.659 131.063 386.274 131.045 385.898 131.099C385.522 131.153 385.161 131.277 384.838 131.464C385.093 132.37 385.119 133.318 384.914 134.234C384.298 137.294 381.749 136.434 382.754 133.824C383.102 132.834 383.828 131.995 384.795 131.464C384.201 129.334 382.365 128.084 380.755 128.594C377.839 129.524 372.687 139.204 376.64 144.264Z"
    fill="black" />
  <path
    d="M382.485 163.494C381.329 162.809 380.514 161.727 380.218 160.486C379.922 159.245 380.17 157.946 380.907 156.874C381.429 156.119 382.169 155.515 383.043 155.129C383.917 154.744 384.89 154.593 385.852 154.695C386.814 154.796 387.725 155.145 388.484 155.702C389.242 156.259 389.816 157.002 390.141 157.847C390.466 158.691 390.528 159.603 390.321 160.478C390.114 161.354 389.646 162.158 388.97 162.799C388.294 163.441 387.437 163.894 386.497 164.107C385.557 164.32 384.571 164.284 383.651 164.004C383.239 163.884 382.847 163.712 382.485 163.494ZM381.491 157.214C381.013 157.906 380.767 158.713 380.785 159.534C380.802 160.355 381.082 161.152 381.59 161.825C382.097 162.499 382.808 163.018 383.634 163.317C384.46 163.616 385.363 163.681 386.229 163.505C387.095 163.328 387.885 162.918 388.499 162.326C389.114 161.734 389.524 160.987 389.68 160.178C389.835 159.37 389.728 158.537 389.372 157.786C389.016 157.034 388.427 156.396 387.68 155.954C387.367 155.768 387.03 155.62 386.675 155.514C385.73 155.226 384.708 155.237 383.769 155.544C382.831 155.852 382.029 156.439 381.491 157.214Z"
    fill="#455A64" />
  <path
    d="M372.59 159.193C370.667 158.363 370.073 155.733 371.283 153.343C371.808 152.251 372.688 151.339 373.8 150.733C374.262 150.451 374.794 150.284 375.346 150.246C375.898 150.209 376.451 150.303 376.952 150.52C377.453 150.736 377.887 151.068 378.21 151.483C378.534 151.899 378.737 152.384 378.801 152.893C379.022 154.069 378.837 155.28 378.272 156.353C377.127 158.623 374.783 159.883 372.871 159.353L372.59 159.193ZM374.135 151.293C373.149 151.831 372.37 152.643 371.909 153.613C370.829 155.683 371.305 157.933 372.882 158.613C374.459 159.293 376.597 158.163 377.645 156.083C378.145 155.13 378.311 154.057 378.12 153.013C378.062 152.606 377.899 152.219 377.645 151.883C377.391 151.547 377.054 151.273 376.662 151.083L376.425 150.993C376.041 150.893 375.64 150.867 375.245 150.919C374.851 150.971 374.473 151.098 374.135 151.293Z"
    fill="#455A64" />
  <path
    d="M380.81 157.442L381.436 157.172C381.004 156.312 379.73 154.862 378.012 155.502L378.271 156.092C379.816 155.512 380.767 157.372 380.81 157.442Z"
    fill="#455A64" />
  <path
    d="M401.149 167.573H401.84C401.84 167.283 401.678 164.643 400.382 163.823C399.086 163.003 390.391 160.173 390.023 160.043L389.786 160.653C392.302 161.483 399.053 163.763 399.993 164.353C400.933 164.943 401.116 166.853 401.149 167.573Z"
    fill="#455A64" />
  <path
    d="M395.187 165.221C395.187 165.221 400.879 160.921 403.104 162.951C405.329 164.981 399.864 171.951 396.472 172.211C396.036 172.274 395.591 172.254 395.164 172.152C394.736 172.051 394.336 171.869 393.987 171.619C393.638 171.369 393.348 171.056 393.135 170.699C392.921 170.341 392.789 169.947 392.746 169.541L395.187 165.221Z"
    fill="#B76F5F" />
  <path
    d="M401.484 164.915C401.538 164.915 401.484 164.995 401.484 164.995C399.065 165.235 397.358 166.795 395.965 168.515C396.152 168.347 396.377 168.218 396.623 168.138C396.869 168.058 397.131 168.029 397.391 168.051C397.651 168.074 397.902 168.149 398.128 168.271C398.353 168.392 398.548 168.557 398.697 168.755C398.704 168.767 398.707 168.781 398.706 168.794C398.704 168.808 398.699 168.821 398.689 168.831C398.68 168.842 398.668 168.85 398.654 168.854C398.64 168.858 398.625 168.859 398.611 168.855C398.265 168.641 397.856 168.532 397.44 168.543C397.024 168.554 396.621 168.684 396.289 168.915C395.74 169.305 395.236 169.748 394.787 170.235C394.625 170.395 394.301 170.235 394.442 170.015C395.209 167.375 398.449 164.375 401.484 164.915Z"
    fill="#263238" />
  <path
    d="M375.334 184.841L379.33 195.191L393.545 182.781L397.25 187.061C397.25 187.061 383.014 207.061 382.97 206.141L378.801 197.141L371.996 203.021L373.163 187.691L375.334 184.841Z"
    fill="#EBEBEB" />
  <path
    d="M372.104 195.464C372.396 192.944 372.601 190.394 373.011 187.884C373.011 187.794 373.184 187.754 373.206 187.884C373.648 190.344 372.504 199.994 372.417 202.314C372.698 202.054 378.714 197.154 378.768 197.234C379.687 198.664 382.754 205.234 382.959 205.774C385.206 202.594 393.761 191.054 396.45 188.064C396.457 188.055 396.465 188.047 396.475 188.041C396.485 188.034 396.495 188.03 396.507 188.028C396.519 188.025 396.53 188.025 396.542 188.027C396.554 188.029 396.565 188.033 396.575 188.039C396.585 188.045 396.593 188.053 396.6 188.062C396.607 188.07 396.611 188.081 396.614 188.091C396.616 188.102 396.617 188.113 396.615 188.124C396.612 188.134 396.608 188.145 396.602 188.154C394.593 191.524 383.197 207.074 383.035 207.024C381.416 203.943 379.974 200.785 378.714 197.564C377.634 198.644 371.596 204.204 371.596 203.834C371.607 201.038 371.777 198.244 372.104 195.464Z"
    fill="#263238" />
  <path
    d="M206.699 70.3125C212.722 73.868 219.734 75.7203 226.876 75.6425C229.135 75.5142 231.399 75.4908 233.66 75.5725C235.936 75.6594 238.117 76.4438 239.86 77.8025C240.716 78.4949 241.326 79.4102 241.612 80.4289C241.897 81.4476 241.843 82.5223 241.458 83.5125C240.184 86.2125 236.058 87.2825 235.431 90.1725C234.977 92.2525 236.652 94.2325 238.542 95.4425C240.432 96.6525 242.636 97.4425 244.224 98.9825C245.182 99.9043 245.859 101.045 246.185 102.288C246.512 103.532 246.476 104.833 246.082 106.059C245.687 107.285 244.949 108.393 243.941 109.268C242.933 110.144 241.693 110.756 240.346 111.042C238.736 111.392 236.76 111.403 235.885 112.702C235.421 113.69 235.337 114.795 235.647 115.833C236.071 118.061 235.751 120.357 234.729 122.413C234.203 123.43 233.382 124.293 232.358 124.906C231.334 125.518 230.147 125.856 228.929 125.882C227.978 125.882 227.049 125.582 226.099 125.602C225.624 125.575 225.153 125.682 224.746 125.909C224.339 126.136 224.016 126.472 223.819 126.872C223.719 127.472 223.748 128.084 223.906 128.673C224.251 131.623 221.076 133.933 217.997 134.773C211.851 136.473 205.036 134.833 199.808 131.333C194.58 127.833 191.004 122.652 188.574 117.152C186.144 111.652 184.837 105.812 183.541 99.9925"
    fill="#263238" />
  <path
    d="M138.045 217.402C138.733 215.827 139.767 214.4 141.08 213.212C149.213 205.212 161.538 201.362 173.387 201.992C185.237 202.622 196.589 207.392 205.792 214.302C210.707 217.992 217.339 225.102 219.067 230.742C211.851 232.352 201.072 230.112 194.223 227.362C187.375 224.612 180.678 221.292 173.301 220.592C164.746 219.782 156.342 222.592 147.917 224.182C146.233 224.562 144.493 224.691 142.765 224.562C141.901 224.491 141.064 224.25 140.308 223.858C139.552 223.465 138.895 222.928 138.379 222.282C137.926 221.546 137.661 220.724 137.603 219.878C137.545 219.033 137.696 218.186 138.045 217.402Z"
    fill="#FF725E" />
  <g opacity="0.3">
    <path
      d="M138.045 217.402C138.733 215.827 139.767 214.4 141.08 213.212C149.213 205.212 161.538 201.362 173.387 201.992C185.237 202.622 196.589 207.392 205.792 214.302C210.707 217.992 217.339 225.102 219.067 230.742C211.851 232.352 201.072 230.112 194.223 227.362C187.375 224.612 180.678 221.292 173.301 220.592C164.746 219.782 156.342 222.592 147.917 224.182C146.233 224.562 144.493 224.691 142.765 224.562C141.901 224.491 141.064 224.25 140.308 223.858C139.552 223.465 138.895 222.928 138.379 222.282C137.926 221.546 137.661 220.724 137.603 219.878C137.545 219.033 137.696 218.186 138.045 217.402Z"
      fill="black" />
  </g>
  <path
    d="M143.932 312.803L123.333 300.453C123.333 300.453 102.81 315.683 98.8028 313.743L123.257 275.953L156.213 293.953L143.932 312.803Z"
    fill="#FF725E" />
  <path
    d="M132.676 289.734C132.794 289.303 132.735 288.848 132.512 288.454C132.289 288.061 131.916 287.758 131.466 287.604C131.005 287.48 130.51 287.525 130.083 287.73C129.657 287.934 129.332 288.283 129.176 288.704C129.055 289.16 129.121 289.641 129.36 290.054C129.6 290.468 129.996 290.785 130.472 290.944C130.967 291.028 131.477 290.931 131.896 290.673C132.315 290.416 132.61 290.018 132.719 289.564"
    fill="#E0E0E0" />
  <g opacity="0.6">
    <path
      d="M123.257 275.953L126.498 277.893L101.805 313.393C101.805 313.393 99.9258 314.643 98.7701 313.743L123.257 275.953Z"
      fill="white" />
  </g>
  <path
    d="M123.16 301.171C122.965 301.061 123.473 300.081 123.419 298.821C123.365 297.561 122.836 296.611 123.019 296.481C123.203 296.351 124.186 297.271 124.218 298.801C124.251 300.331 123.311 301.321 123.16 301.171Z"
    fill="#263238" />
  <path
    d="M118.818 304.162C118.602 304.102 118.818 303.162 118.343 302.012C117.867 300.862 117.122 300.242 117.263 300.062C117.403 299.882 118.591 300.392 119.11 301.762C119.628 303.132 119.012 304.262 118.818 304.162Z"
    fill="#263238" />
  <path
    d="M112.229 303.573C112.304 303.383 113.46 303.683 114.249 304.763C115.037 305.843 114.908 306.943 114.692 306.933C114.476 306.923 114.238 306.063 113.611 305.183C112.985 304.303 112.132 303.773 112.229 303.573Z"
    fill="#263238" />
  <path
    d="M128.194 303.514C128.053 303.334 128.885 302.634 129.479 301.514C130.073 300.394 130.246 299.414 130.484 299.414C130.721 299.414 130.916 300.584 130.192 301.864C129.468 303.144 128.291 303.694 128.194 303.514Z"
    fill="#263238" />
  <path opacity="0.3"
    d="M140.68 285.441L131.315 305.221L134.459 307.281L145.26 287.991L140.68 285.441Z" fill="black" />
  <path
    d="M152.95 207.831C153.793 207.831 181.499 207.261 196.459 216.411L208.341 222.591L208.027 233.691C208.027 233.691 210.566 237.611 210.004 239.961C209.442 242.311 210.08 252.241 210.08 252.241C210.08 252.241 214.519 252.501 215.081 259.561C215.081 259.561 221.238 261.911 223.938 266.091C226.638 270.271 254.312 317.301 255.997 324.881C257.682 332.461 258.827 345.781 252.616 350.221C246.405 354.661 232.504 353.091 232.504 353.091C232.504 353.091 230.527 358.581 218.386 358.841C206.245 359.101 187.634 346.041 187.634 346.041L131.747 310.771L145.011 284.561L164.53 295.611L143.65 273.141C143.65 273.141 134.048 257.991 136.878 242.051C138.962 230.221 152.95 207.831 152.95 207.831Z"
    fill="#263238" />
  <path
    d="M148.166 215.953H148.825H150.704C152.346 215.953 154.701 215.953 157.617 215.953C160.533 215.953 164.011 216.083 167.835 216.463C171.985 216.83 176.079 217.622 180.041 218.823C188.477 221.463 195.26 225.653 200.089 228.643L205.77 232.283L207.315 233.283C207.486 233.409 207.675 233.514 207.876 233.593C207.876 233.593 207.725 233.443 207.39 233.193L205.9 232.133C204.593 231.213 202.659 229.903 200.315 228.343C195.53 225.273 188.747 221.003 180.225 218.343C176.223 217.128 172.084 216.339 167.889 215.993C164.475 215.7 161.046 215.57 157.617 215.603C154.701 215.603 152.335 215.703 150.704 215.783L148.825 215.883C148.602 215.879 148.381 215.902 148.166 215.953Z"
    fill="#455A64" />
  <path
    d="M205.187 224.112C205.629 224.523 205.933 225.044 206.062 225.612C206.117 225.904 206.093 226.204 205.991 226.485C205.889 226.767 205.713 227.02 205.479 227.222C205.192 227.465 204.841 227.633 204.461 227.707C204.08 227.781 203.686 227.758 203.318 227.642C202.966 227.492 202.663 227.257 202.443 226.961C202.222 226.665 202.092 226.32 202.065 225.962C202.044 225.665 202.103 225.368 202.237 225.097C202.37 224.826 202.575 224.591 202.832 224.412C203.349 224.079 203.963 223.897 204.593 223.892C204.593 223.892 204.431 223.762 204.064 223.742C203.545 223.714 203.032 223.848 202.605 224.122C202.265 224.317 201.987 224.592 201.797 224.918C201.608 225.245 201.514 225.611 201.525 225.982C201.516 226.449 201.661 226.908 201.941 227.297C202.221 227.687 202.622 227.988 203.091 228.16C203.561 228.333 204.076 228.369 204.568 228.264C205.06 228.159 205.506 227.918 205.846 227.572C206.123 227.314 206.326 226.995 206.435 226.646C206.545 226.297 206.557 225.927 206.472 225.572C206.359 225.102 206.086 224.678 205.695 224.362C205.392 224.122 205.198 224.082 205.187 224.112Z"
    fill="#455A64" />
  <path
    d="M195.239 225.462C195.293 225.512 195.682 225.242 196.232 224.722C197.036 224.072 197.599 223.205 197.841 222.244C198.083 221.282 197.993 220.274 197.583 219.362C197.334 218.662 197.107 218.262 197.043 218.282C196.978 218.302 197.043 218.752 197.194 219.452C197.422 220.327 197.455 221.235 197.291 222.122C197.011 222.984 196.548 223.787 195.93 224.482C195.476 225.052 195.185 225.412 195.239 225.462Z"
    fill="#455A64" />
  <path
    d="M192.895 224.13C192.895 224.18 193.327 223.96 193.834 223.47C194.487 222.808 194.97 222.019 195.249 221.16C195.683 219.969 195.702 218.682 195.303 217.48C195.109 217.48 195.303 219.14 194.709 221.01C194.242 222.114 193.633 223.162 192.895 224.13Z"
    fill="#455A64" />
  <path
    d="M162.986 215.954C163.072 215.954 163.104 215.484 163.18 214.744C163.263 213.802 163.492 212.875 163.861 211.994C164.265 211.129 164.836 210.34 165.546 209.664C166.086 209.124 166.431 208.784 166.377 208.724C166.323 208.664 165.891 208.904 165.297 209.394C164.461 210.042 163.802 210.865 163.374 211.794C162.973 212.728 162.782 213.729 162.813 214.734C162.765 215.147 162.825 215.566 162.986 215.954Z"
    fill="#455A64" />
  <path
    d="M159.356 215.952C159.443 215.952 159.453 215.482 159.443 214.752C159.381 213.826 159.465 212.896 159.691 211.992C160.053 211.124 160.524 210.298 161.095 209.532C161.517 208.912 161.743 208.532 161.679 208.462C161.614 208.392 161.268 208.752 160.771 209.322C160.076 210.068 159.528 210.921 159.151 211.842C158.891 212.804 158.858 213.807 159.054 214.782C159.162 215.462 159.281 215.952 159.356 215.952Z"
    fill="#455A64" />
  <path
    d="M207.131 329.533C207.016 329.125 206.845 328.732 206.623 328.363C206.245 327.613 205.662 326.523 204.895 325.133C203.361 322.343 201.104 318.333 198.274 313.393C192.614 303.513 184.707 289.903 175.904 274.913L169.423 263.963C167.453 260.573 165.926 256.978 164.875 253.253C163.091 246.922 162.723 240.321 163.795 233.853C164.502 229.496 165.843 225.248 167.781 221.223C168.461 219.793 169.055 218.713 169.466 217.983L169.941 217.153C169.997 217.06 170.044 216.963 170.082 216.863C170.007 216.947 169.942 217.038 169.887 217.133L169.369 217.933C168.926 218.643 168.289 219.713 167.576 221.133C162.529 231.22 161.426 242.617 164.454 253.373C165.504 257.143 167.038 260.782 169.023 264.213C171.097 267.743 173.246 271.403 175.439 275.153L197.939 313.563L204.722 325.223L206.548 328.403L207.001 329.243C207.035 329.343 207.079 329.44 207.131 329.533Z"
    fill="#455A64" />
  <path
    d="M144.795 295.691C144.985 295.839 145.188 295.973 145.4 296.091L147.193 297.091L153.815 300.951C159.399 304.151 167.09 308.601 175.504 313.641C183.919 318.681 191.458 323.311 196.859 326.691L203.34 330.691L205.122 331.751C205.323 331.885 205.536 332.002 205.759 332.101C205.587 331.938 205.395 331.794 205.187 331.671L203.469 330.521L197.096 326.391C191.696 322.941 184.135 318.221 175.763 313.171C167.392 308.121 159.615 303.721 153.977 300.611C151.158 299.051 148.857 297.811 147.269 296.971L145.422 295.971C145.222 295.862 145.012 295.769 144.795 295.691Z"
    fill="#455A64" />
  <path
    d="M136.057 313.451C136.266 313.135 136.44 312.8 136.575 312.451L137.926 309.611C139.092 307.221 140.756 303.941 142.624 300.331C144.493 296.721 146.113 293.551 147.388 291.071L148.803 288.251C148.997 287.915 149.149 287.56 149.256 287.191C148.994 287.497 148.776 287.833 148.608 288.191C148.219 288.841 147.679 289.771 147.031 290.941C145.735 293.271 143.974 296.521 142.117 300.141C140.259 303.761 138.638 307.061 137.558 309.501C137.018 310.711 136.619 311.711 136.37 312.411C136.227 312.747 136.122 313.096 136.057 313.451Z"
    fill="#455A64" />
  <path
    d="M207.132 329.533C207.229 329.423 197.68 321.603 185.788 312.063C173.895 302.523 164.185 294.883 164.077 294.993C163.969 295.103 173.528 302.953 185.421 312.453C197.313 321.953 207.024 329.643 207.132 329.533Z"
    fill="#455A64" />
  <path
    d="M218.97 347.863C218.097 347.167 217.324 346.371 216.669 345.493C215.513 343.833 214.098 341.393 212.5 338.743C210.901 336.093 209.551 333.623 208.557 331.853C208.074 330.872 207.511 329.926 206.872 329.023C207.217 330.058 207.662 331.062 208.201 332.023C209.108 333.843 210.426 336.323 212.003 339.023C213.58 341.723 215.07 344.083 216.323 345.733C216.826 346.389 217.43 346.972 218.116 347.463C218.369 347.648 218.659 347.784 218.97 347.863Z"
    fill="#455A64" />
  <path
    d="M208.849 350.693C208.935 350.693 208.32 349.563 207.639 347.693C206.79 345.239 206.204 342.713 205.889 340.153C205.504 337.605 205.504 335.021 205.889 332.473C206.017 331.712 206.26 330.971 206.613 330.273C206.797 330.045 206.956 329.8 207.088 329.543C207.088 329.543 206.807 329.713 206.429 330.173C205.98 330.86 205.665 331.615 205.5 332.403C204.978 334.979 204.905 337.616 205.284 340.213C205.596 342.813 206.249 345.369 207.229 347.823C207.531 348.563 207.892 349.282 208.309 349.973C208.633 350.453 208.816 350.713 208.849 350.693Z"
    fill="#455A64" />
  <path
    d="M220.546 335.502C219.856 335.211 219.131 334.996 218.386 334.862C216.683 334.435 215.018 333.886 213.407 333.222C209.658 331.602 207.207 329.372 207.077 329.532C207.547 330.083 208.108 330.562 208.74 330.952C210.108 332.04 211.631 332.948 213.266 333.652C214.906 334.337 216.623 334.85 218.386 335.182C219.087 335.378 219.814 335.486 220.546 335.502Z"
    fill="#455A64" />
  <path
    d="M206.256 262.84C206.297 262.916 206.348 262.987 206.407 263.05L206.883 263.64C207.304 264.16 207.909 264.93 208.633 265.95C210.668 268.858 212.383 271.946 213.752 275.17C215.735 279.968 217.384 284.878 218.689 289.87C220.298 295.48 221.929 301.73 224.64 307.97C227.352 314.21 230.873 319.75 233.098 325.17C235.189 329.923 236.328 334.99 236.457 340.12C236.458 342.082 236.219 344.038 235.744 345.95C235.364 347.393 234.847 348.802 234.2 350.16C233.787 351.021 233.322 351.859 232.806 352.67C232.655 352.93 232.526 353.14 232.418 353.31C232.371 353.384 232.331 353.461 232.299 353.54C232.365 353.481 232.423 353.414 232.472 353.34L232.904 352.73C233.46 351.934 233.961 351.105 234.405 350.25C235.092 348.89 235.641 347.474 236.047 346.02C236.559 344.085 236.831 342.103 236.857 340.11C236.8 334.928 235.701 329.8 233.616 324.99C231.402 319.52 227.978 313.93 225.202 307.76C222.426 301.59 220.881 295.34 219.24 289.76C217.901 284.755 216.205 279.838 214.163 275.04C212.756 271.81 210.978 268.729 208.859 265.85C208.103 264.85 207.466 264.08 207.012 263.59L206.494 263.03C206.332 262.95 206.267 262.83 206.256 262.84Z"
    fill="#455A64" />
  <path
    d="M204.42 231.282C204.577 231.7 204.765 232.107 204.981 232.502C205.498 233.602 205.861 234.757 206.062 235.942C206.303 237.7 206.237 239.483 205.867 241.222C205.532 243.222 204.636 245.222 204.031 247.562C203.725 248.692 203.619 249.861 203.718 251.022C203.811 252.09 203.995 253.15 204.269 254.192C204.726 255.942 205.285 257.668 205.943 259.362C206.494 260.812 207.023 261.962 207.325 262.762C207.474 263.184 207.674 263.59 207.919 263.972C207.832 263.535 207.702 263.107 207.531 262.692C207.207 261.782 206.807 260.622 206.321 259.242C205.835 257.862 205.241 256.052 204.776 254.082C204.157 251.994 204.09 249.799 204.582 247.682C205.165 245.452 206.072 243.342 206.375 241.302C206.736 239.513 206.766 237.68 206.461 235.882C206.231 234.676 205.804 233.51 205.197 232.422C205.041 232.125 204.865 231.838 204.668 231.562C204.539 231.372 204.42 231.272 204.42 231.282Z"
    fill="#455A64" />
  <path
    d="M203.124 261.373C201.923 260.132 200.998 258.684 200.402 257.113C199.801 255.402 199.516 253.61 199.559 251.812C199.644 249.599 199.94 247.397 200.445 245.233C200.969 243.05 201.369 240.844 201.644 238.623C201.816 236.791 201.776 234.947 201.525 233.123C201.369 231.891 201.05 230.682 200.574 229.523C200.447 229.209 200.296 228.905 200.121 228.613C199.991 228.413 199.926 228.312 199.905 228.312C199.883 228.312 200.088 228.773 200.369 229.593C200.758 230.758 201.015 231.958 201.136 233.173C201.32 234.968 201.32 236.777 201.136 238.573C200.931 240.573 200.391 242.803 199.905 245.133C199.391 247.329 199.105 249.566 199.051 251.812C199.03 253.66 199.367 255.495 200.045 257.233C200.499 258.41 201.179 259.501 202.054 260.453C202.296 260.705 202.556 260.942 202.832 261.163C203.005 261.313 203.113 261.383 203.124 261.373Z"
    fill="#455A64" />
  <path
    d="M175.731 253.493C176.158 253.605 176.596 253.679 177.038 253.713C177.881 253.813 179.101 253.993 180.592 254.233C184.487 254.859 188.323 255.768 192.063 256.953C195.799 258.153 199.429 259.621 202.919 261.343C204.258 262.013 205.327 262.563 206.062 262.963C206.429 263.196 206.824 263.387 207.239 263.533C206.91 263.251 206.547 263.003 206.159 262.793C205.457 262.343 204.409 261.733 203.091 261.023C196.167 257.349 188.555 254.92 180.657 253.863C179.144 253.673 177.913 253.553 177.06 253.513C176.62 253.456 176.173 253.449 175.731 253.493Z"
    fill="#455A64" />
  <path
    d="M173.971 242.584C173.971 242.684 175.569 242.664 178.086 243.024C179.549 243.24 180.993 243.554 182.407 243.964C185.895 244.978 189.158 246.563 192.042 248.644C193.219 249.494 194.327 250.423 195.358 251.424C197.107 253.134 197.993 254.364 198.08 254.304C197.94 253.98 197.751 253.677 197.518 253.404C196.957 252.618 196.332 251.872 195.649 251.174C194.66 250.121 193.576 249.147 192.409 248.264C190.954 247.199 189.399 246.255 187.764 245.444C186.108 244.658 184.38 244.009 182.601 243.504C181.15 243.107 179.665 242.826 178.162 242.664C177.148 242.539 176.127 242.486 175.105 242.504C174.725 242.489 174.344 242.516 173.971 242.584Z"
    fill="#455A64" />
  <path
    d="M171.561 265.461C171.946 265.646 172.352 265.79 172.771 265.891C173.571 266.131 174.705 266.491 176.12 266.951C179.777 268.161 183.358 269.56 186.846 271.141C190.323 272.733 193.699 274.51 196.956 276.461C198.209 277.211 199.213 277.831 199.905 278.271C200.239 278.517 200.601 278.728 200.985 278.901C200.692 278.603 200.362 278.337 200.002 278.111C199.354 277.621 198.382 276.951 197.15 276.111C193.94 274.051 190.567 272.216 187.062 270.621C183.572 269.025 179.962 267.665 176.26 266.551C174.834 266.141 173.668 265.831 172.858 265.651C172.436 265.538 172 265.474 171.561 265.461Z"
    fill="#455A64" />
  <path
    d="M137.451 239.293C137.823 239.222 138.186 239.111 138.531 238.963C139.201 238.723 140.184 238.383 141.458 237.963C144.97 236.898 148.589 236.165 152.26 235.773L151.99 235.543C151.86 239.853 151.892 244.963 152.303 250.413C152.691 255.723 153.452 261.004 154.582 266.223V266.113C153.584 269.139 152.382 272.105 150.985 274.993C150.477 275.993 150.013 276.813 149.7 277.353C149.513 277.613 149.343 277.884 149.192 278.163C149.428 277.933 149.638 277.682 149.819 277.413C150.338 276.669 150.81 275.898 151.234 275.103C152.723 272.237 153.989 269.276 155.025 266.243V266.193V266.133C153.97 260.924 153.248 255.661 152.865 250.373C152.454 244.943 152.4 239.853 152.465 235.553V235.293H152.184C148.5 235.718 144.878 236.516 141.383 237.673C140.119 238.103 139.157 238.493 138.499 238.763C138.133 238.91 137.782 239.087 137.451 239.293Z"
    fill="#455A64" />
  <path
    d="M136.63 243.632C137.402 243.499 138.161 243.305 138.898 243.052C140.281 242.672 142.214 242.172 144.364 241.712C148.684 240.772 152.206 240.172 152.184 240.022C151.394 239.994 150.602 240.058 149.829 240.212C148.382 240.402 146.405 240.722 144.234 241.212C139.881 242.112 136.554 243.492 136.63 243.632Z"
    fill="#455A64" />
  <path
    d="M141.771 228.241C141.771 228.311 143.089 227.961 145.195 227.501C147.939 226.907 150.726 226.496 153.534 226.271C156.344 226.067 159.166 226.034 161.981 226.171C163.151 226.272 164.327 226.312 165.502 226.291C165.205 226.182 164.892 226.115 164.573 226.091C163.968 226.001 163.093 225.891 162.013 225.801C159.179 225.558 156.328 225.542 153.491 225.751C150.652 225.971 147.843 226.436 145.098 227.141C144.018 227.421 143.208 227.671 142.646 227.881C142.335 227.957 142.04 228.078 141.771 228.241Z"
    fill="#455A64" />
  <path
    d="M163.796 232.751C164.259 232.93 164.74 233.067 165.232 233.161C166.161 233.391 167.522 233.671 169.229 233.951C173.667 234.669 178.184 234.878 182.677 234.571C185.28 234.331 187.883 234.071 189.914 232.891C190.871 232.338 191.65 231.557 192.171 230.631C192.602 229.798 192.731 228.858 192.538 227.951C192.32 226.696 191.916 225.475 191.339 224.321C191.157 223.885 190.898 223.479 190.573 223.121C190.573 223.121 190.789 223.571 191.134 224.391C191.621 225.554 191.962 226.766 192.15 228.001C192.287 228.824 192.144 229.667 191.739 230.411C191.228 231.247 190.481 231.938 189.579 232.411C187.689 233.491 185.15 233.751 182.569 233.981C178.113 234.281 173.636 234.123 169.218 233.511C167.522 233.291 166.15 233.061 165.211 232.891C164.744 232.805 164.271 232.759 163.796 232.751Z"
    fill="#455A64" />
  <path
    d="M166.55 53.513C171.713 43.153 184.491 45.193 190.605 47.943C196.749 50.6285 201.574 55.3598 204.117 61.193C205.91 65.193 207.358 69.753 210.966 72.193C212.624 73.105 214.337 73.9296 216.096 74.663C217 75.0686 217.792 75.6579 218.415 76.3869C219.038 77.1159 219.475 77.9658 219.693 78.873C220.233 82.323 216.453 84.713 213.342 86.103C215.211 87.283 215.697 89.953 215.038 92.103C214.24 94.1575 212.981 96.0321 211.344 97.603C205.833 103.236 199.53 108.156 192.603 112.233C186.705 115.633 182.882 116.033 176.552 113.593C173.981 112.593 171.583 110.973 168.84 110.683C165.653 110.353 162.607 111.863 159.453 112.473C156.299 113.083 152.324 112.243 151.298 109.173C151.044 107.949 150.899 106.709 150.866 105.463C150.704 104.233 150.045 102.893 148.846 102.613C147.874 102.383 146.902 102.933 145.951 103.223C143.672 103.923 140.237 119.583 138.055 118.633C138.055 118.633 134.88 92.093 140.993 76.563C142.948 71.563 147.118 61.043 150.445 56.933C155.024 51.293 165.999 52.543 166.55 53.543"
    fill="#263238" />
  <path
    d="M173.095 55.2305C181.229 52.6005 192.203 58.3805 194.698 66.0105C197.474 74.4805 200.488 84.9305 201.017 91.5905C202.097 104.98 191.804 108.95 191.804 108.95L195.984 129.88L160.738 119.33L148.435 70.0105L147.29 65.8705L173.095 55.2305Z"
    fill="#FFBE9D" />
  <path
    d="M194.699 76.3331C194.58 76.6231 192.906 76.2031 191.069 76.8731C189.233 77.5431 188.239 78.8731 187.959 78.7531C187.678 78.6331 187.872 78.2531 188.293 77.6431C188.872 76.841 189.707 76.2258 190.681 75.8831C191.634 75.5243 192.688 75.4611 193.683 75.7031C194.407 75.9531 194.699 76.2031 194.699 76.3331Z"
    fill="#263238" />
  <path
    d="M176.455 80.783C176.239 81.013 174.781 80.153 172.815 80.283C170.849 80.413 169.466 81.413 169.229 81.203C168.991 80.993 169.315 80.693 169.92 80.203C170.734 79.6078 171.725 79.2586 172.761 79.203C173.788 79.1348 174.813 79.3693 175.688 79.873C176.336 80.283 176.552 80.673 176.455 80.783Z"
    fill="#263238" />
  <path
    d="M184.643 88.2741C185.581 87.7577 186.586 87.3544 187.635 87.0741C188.11 86.9141 188.553 86.7241 188.553 86.3941C188.478 85.9164 188.244 85.4722 187.883 85.1241L185.561 81.9741C182.32 77.4841 179.804 73.7441 179.998 73.6241C180.192 73.5041 183.001 77.0441 186.274 81.5341C187.062 82.6541 187.818 83.7041 188.542 84.7241C188.996 85.2031 189.249 85.817 189.255 86.4541C189.222 86.629 189.148 86.7951 189.038 86.9403C188.928 87.0856 188.784 87.2064 188.618 87.2941C188.359 87.4154 188.087 87.5125 187.807 87.5841C186.789 87.9379 185.725 88.1698 184.643 88.2741Z"
    fill="#263238" />
  <path
    d="M191.793 108.95C185.101 110.51 178.075 110.348 171.476 108.48C171.476 108.48 178.313 116.54 192.452 112.22L191.793 108.95Z"
    fill="#EB996E" />
  <path d="M185.69 94.2539C185.876 94.0339 185.602 94.5239 185.69 94.2539V94.2539Z" fill="#EB996E" />
  <path
    d="M179.414 93.3828C179.626 92.971 179.927 92.6039 180.299 92.3046C180.671 92.0052 181.105 91.7799 181.575 91.6428C182.211 91.4318 182.894 91.3734 183.561 91.4731C184.227 91.5728 184.856 91.8273 185.388 92.2128C185.605 92.5002 185.749 92.8299 185.807 93.1767C185.865 93.5235 185.836 93.878 185.723 94.2128C185.042 95.0228 184.977 95.7028 184.027 96.2128C183.342 96.4218 182.617 96.4907 181.901 96.4147C181.184 96.3387 180.495 96.1197 179.879 95.7728C179.546 95.4665 179.324 95.073 179.24 94.6455C179.157 94.218 179.218 93.7773 179.414 93.3828Z"
    fill="#EB996E" />
  <path
    d="M179.285 90.7329C179.598 90.6529 180.095 92.5829 182.223 93.5629C184.351 94.5429 186.544 93.8529 186.619 94.1229C186.619 94.2329 186.219 94.6029 185.28 94.8329C184.063 95.1156 182.778 94.9916 181.65 94.4829C180.564 93.9906 179.727 93.1263 179.317 92.0729C179.026 91.2829 179.144 90.7529 179.285 90.7329Z"
    fill="#263238" />
  <path
    d="M172.48 71.3541C172.588 71.8641 170.978 72.3541 169.347 73.4941C167.716 74.6341 166.604 75.8041 166.107 75.4941C165.891 75.3541 165.902 74.8241 166.226 74.1141C166.663 73.2321 167.345 72.4731 168.202 71.9141C169.035 71.3437 170.022 70.9976 171.054 70.9141C171.907 70.9541 172.426 71.1141 172.48 71.3541Z"
    fill="#263238" />
  <path
    d="M193.511 69.4817C193.089 69.8617 191.609 69.2917 189.795 69.1117C187.98 68.9317 186.392 69.1117 186.079 68.6317C185.949 68.4017 186.23 68.0117 186.954 67.6317C187.925 67.2283 189 67.0863 190.054 67.2217C191.108 67.3239 192.108 67.702 192.938 68.3117C193.543 68.8517 193.705 69.2917 193.511 69.4817Z"
    fill="#263238" />
  <path
    d="M145.303 65.8439C145.909 64.8427 146.86 64.0579 148.003 63.6139C155.015 60.0513 162.276 56.9244 169.736 54.2539L172.804 55.8639C173.206 58.6302 172.713 61.4449 171.386 63.9515C170.059 66.458 167.959 68.5435 165.35 69.9439C163.255 71.0239 160.533 72.0439 160.263 74.2539C159.993 76.4639 162.574 78.1039 164.033 79.9639C164.924 81.125 165.424 82.5049 165.468 83.929C165.512 85.3531 165.099 86.7573 164.281 87.9639C163.341 89.3139 161.916 90.3339 161.041 91.7239C160.499 92.6672 160.191 93.7108 160.141 94.7783C160.09 95.8459 160.298 96.9103 160.749 97.8939C161.624 99.8939 163.082 102.524 165.07 103.634C162.387 104.192 159.582 103.961 157.048 102.974C154.513 101.986 152.375 100.291 150.93 98.1239C149.289 95.5439 149.159 92.4139 148.943 89.4239C148.447 82.6227 147.279 75.8779 145.454 69.2739C144.994 68.1778 144.941 66.9711 145.303 65.8439Z"
    fill="#263238" />
  <path
    d="M169.251 54.5625C171.14 56.8769 173.411 58.9017 175.98 60.5625C178.637 62.0925 182.029 62.8125 184.935 61.7325C184.211 60.9925 183.476 60.2525 182.774 59.5025C187.945 62.7805 193.798 65.0217 199.959 66.0825C196.093 61.7325 192.107 57.2925 186.825 54.4825C181.543 51.6725 174.619 50.8125 169.467 53.8025"
    fill="#263238" />
  <path
    d="M144.59 79.8516L161.052 91.6916C159.162 93.6016 159.896 98.4616 161.754 100.392C163.612 102.322 166.075 103.972 166.798 106.472C167.598 109.202 166.031 112.032 165.988 114.862C165.923 118.862 168.829 122.302 171.076 125.722C173.322 129.142 174.943 133.722 172.437 136.992C169.617 140.672 163.234 140.142 159.378 137.392C155.521 134.642 153.318 130.392 150.456 126.752C147.593 123.112 143.121 120.322 138.271 120.752C136.767 106.846 138.936 92.8096 144.59 79.8516Z"
    fill="#263238" />
  <path
    d="M141.836 112.862C141.933 112.692 140.961 112.042 139.298 110.802C136.95 109.123 134.857 107.159 133.076 104.962C131.901 103.464 130.966 101.817 130.3 100.072C129.533 98.1134 129.202 96.0316 129.328 93.9517C129.5 91.6851 130.276 89.4932 131.586 87.5717C133.049 85.4669 134.903 83.6185 137.062 82.1117C141.491 78.9217 146.783 77.1117 151.406 75.2017C155.71 73.6628 159.771 71.5978 163.483 69.0617C166.015 67.3119 168.111 65.078 169.629 62.5117C170.633 60.6617 170.795 59.5117 170.644 59.5117C170.493 59.5117 169.92 60.4417 168.7 62.0217C166.935 64.2177 164.771 66.1126 162.305 67.6217C158.575 69.8153 154.585 71.6038 150.413 72.9517C148.058 73.8217 145.541 74.7217 142.97 75.8217C140.245 76.9569 137.668 78.376 135.291 80.0517C132.867 81.7551 130.799 83.8526 129.188 86.2417C127.677 88.5359 126.818 91.1472 126.693 93.8317C126.621 96.2288 127.092 98.6133 128.075 100.832C128.905 102.734 130.049 104.505 131.467 106.082C133.484 108.31 135.913 110.189 138.639 111.632C140.594 112.652 141.771 113.002 141.836 112.862Z"
    fill="#263238" />
  <path
    d="M141.523 76.9523C142.017 76.8575 142.499 76.7134 142.959 76.5223C143.867 76.2123 145.12 75.7423 146.772 75.1223C150.987 73.5758 154.947 71.4888 158.535 68.9223C162.139 66.3011 164.85 62.7736 166.345 58.7623C166.779 57.5495 167.037 56.2884 167.111 55.0123C167.131 54.6793 167.131 54.3454 167.111 54.0123C167.129 53.8929 167.129 53.7718 167.111 53.6523C166.945 55.3499 166.583 57.0262 166.031 58.6523C164.441 62.5336 161.747 65.9441 158.233 68.5223C154.674 71.0513 150.788 73.1576 146.664 74.7923L142.927 76.3323C142.439 76.4984 141.969 76.706 141.523 76.9523Z"
    fill="#455A64" />
  <path
    d="M141.004 92.0936C141.069 92.0936 140.734 91.4936 140.561 90.3736C140.369 88.7716 140.673 87.1521 141.436 85.7036C142.553 83.5474 144.277 81.7097 146.427 80.3836C148.792 78.7936 151.73 77.5336 154.668 75.9036C157.445 74.3751 159.934 72.4361 162.035 70.1636C163.755 68.3092 165.208 66.2552 166.355 64.0536C167.12 62.576 167.724 61.0317 168.159 59.4436C168.332 58.8836 168.397 58.4436 168.462 58.1436C168.512 57.9949 168.534 57.8392 168.526 57.6836C168.301 58.2432 168.11 58.8141 167.954 59.3936C167.439 60.9415 166.785 62.4468 165.999 63.8936C164.837 66.0538 163.385 68.0697 161.678 69.8936C159.599 72.1141 157.148 74.0115 154.42 75.5136C151.525 77.1136 148.565 78.4036 146.167 80.0436C143.963 81.4328 142.215 83.3562 141.112 85.6036C140.357 87.118 140.105 88.8063 140.388 90.4536C140.472 90.8946 140.613 91.3245 140.81 91.7336C140.907 91.9536 140.983 92.1036 141.004 92.0936Z"
    fill="#455A64" />
  <path
    d="M232.029 81.9516C232.029 81.9516 232.029 81.8915 231.932 81.7915C231.824 81.6377 231.704 81.4907 231.575 81.3516C231.08 80.8027 230.45 80.3708 229.739 80.0916C228.593 79.72 227.388 79.5273 226.174 79.5216C224.781 79.4516 223.182 79.3516 221.422 79.3516C219.518 79.3829 217.616 79.2186 215.751 78.8616C213.647 78.3607 211.697 77.4123 210.059 76.0916C208.253 74.6077 206.688 72.8899 205.414 70.9916C204.058 68.9337 202.822 66.8107 201.709 64.6316C200.573 62.4373 199.274 60.3188 197.82 58.2915C196.447 56.3864 194.721 54.7209 192.722 53.3716C189.278 51.1479 185.2 49.9163 181.002 49.8316C178.195 49.7411 175.398 50.1976 172.793 51.1716L171.583 51.6616L170.752 52.1016C170.514 52.2141 170.286 52.3445 170.071 52.4916C170.323 52.4147 170.565 52.3142 170.795 52.1916L171.659 51.8016L172.869 51.3616C175.466 50.4763 178.227 50.0819 180.992 50.2016C185.093 50.3393 189.063 51.576 192.42 53.7616C194.362 55.0865 196.037 56.7182 197.367 58.5816C198.792 60.5807 200.066 62.6691 201.18 64.8316C202.305 67.0284 203.556 69.1681 204.928 71.2416C206.237 73.1754 207.845 74.9207 209.702 76.4216C211.408 77.7819 213.436 78.7514 215.621 79.2516C217.523 79.6006 219.462 79.7482 221.4 79.6916C223.161 79.6916 224.738 79.6916 226.142 79.7816C227.325 79.7603 228.504 79.919 229.631 80.2516C230.329 80.4962 230.958 80.8863 231.467 81.3916C231.642 81.5886 231.829 81.7757 232.029 81.9516Z"
    fill="#455A64" />
  <path
    d="M238.639 68.4619C245.12 53.3119 253.761 38.4619 254.95 27.1719L267.857 27.6519C267.587 32.0219 265.892 68.3919 256.743 82.7719C247.594 97.1519 217.047 130.772 217.047 130.772L206.3 105.182C206.3 105.182 232.148 83.6219 238.639 68.4619Z"
    fill="#FFBE9D" />
  <path
    d="M260.156 3.65234H265.805C265.805 3.65234 265.254 6.73234 262.694 6.90234C260.134 7.07234 260.631 6.53234 260.631 6.53234L261.204 7.02234L264.725 7.66234C264.725 7.66234 264.552 10.2023 262.23 10.6023L258.806 7.66234L260.156 3.65234Z"
    fill="#FFBE9D" />
  <path
    d="M244.688 3.19223C245.207 7.13224 245.261 6.89223 245.261 6.89223L250.424 10.8322L251.741 5.03224C251.826 4.6479 252.046 4.30033 252.367 4.04353C252.687 3.78674 253.09 3.63512 253.513 3.61223L255.857 3.47223C255.857 3.47223 254.95 0.472234 257.898 0.722234C257.898 0.722234 259.519 0.312234 260.826 5.33223C262.251 10.8222 268.387 23.7222 267.857 28.0322L254.766 28.5222C254.906 24.5222 251.342 20.2522 249.581 18.4122C249.05 17.8644 248.678 17.2001 248.501 16.4822C248.259 15.496 247.754 14.5815 247.032 13.8222C245.412 12.1622 242.009 9.17223 242.009 9.17223V0.0422335C242.009 0.0422335 244.191 -0.607765 244.688 3.19223ZM255.187 12.0122L257.877 13.1422L257.423 10.6022L255.187 10.4022V12.0122Z"
    fill="#FFBE9D" />
  <path
    d="M258.017 13.414C258.019 13.0539 257.975 12.6948 257.887 12.344C257.758 11.654 257.574 10.674 257.326 9.45399L256.418 5.19399C256.205 4.37512 256.057 3.54289 255.976 2.70399C255.976 1.89399 256.3 0.96399 257.239 0.91399C258.179 0.86399 258.87 1.45399 259.324 2.16399C259.54 2.53281 259.714 2.9216 259.842 3.32399L260.264 4.51399L261.668 8.65399C262.089 9.83399 262.478 10.774 262.748 11.414C262.871 11.7694 263.049 12.1062 263.277 12.414C263.215 12.0695 263.106 11.7335 262.953 11.414C262.726 10.754 262.392 9.80399 262.024 8.62399C261.657 7.44399 261.214 5.98399 260.739 4.44399C260.599 4.04399 260.469 3.64399 260.329 3.23399C260.197 2.79603 260.012 2.37332 259.778 1.97399C259.516 1.55204 259.172 1.17898 258.762 0.873989C258.534 0.70767 258.272 0.585643 257.992 0.515197C257.712 0.444752 257.419 0.427334 257.131 0.463989C256.842 0.507264 256.564 0.598747 256.31 0.733989C256.067 0.891726 255.867 1.10079 255.727 1.34399C255.492 1.79166 255.38 2.28653 255.403 2.78399C255.492 3.65109 255.655 4.51038 255.889 5.35399L256.969 9.60399C257.261 10.804 257.509 11.784 257.704 12.454C257.763 12.7852 257.868 13.1079 258.017 13.414Z"
    fill="#EB996E" />
  <path
    d="M255.339 12.0417C255.47 11.0667 255.524 10.0841 255.501 9.10172C255.501 8.70172 255.566 8.32171 255.598 7.97171C255.581 7.70835 255.669 7.44837 255.846 7.24171C256.214 6.99171 256.657 6.99171 256.635 6.90171C256.613 6.81171 256.538 6.83171 256.365 6.81171C256.104 6.77776 255.839 6.8234 255.609 6.94172C255.448 7.0622 255.317 7.21449 255.228 7.38749C255.138 7.56048 255.091 7.74982 255.09 7.94172C255.01 8.32783 254.959 8.71885 254.939 9.11171C254.788 10.1039 254.926 11.1154 255.339 12.0417Z"
    fill="#EB996E" />
  <path
    d="M248.922 9.81248C248.922 9.81248 249.278 10.2525 250.002 10.8125C250.916 11.5626 251.933 12.198 253.027 12.7025C254.166 13.1599 255.384 13.4273 256.623 13.4925C257.126 13.5834 257.644 13.5834 258.146 13.4925C257.68 13.3083 257.183 13.1968 256.677 13.1625C255.503 12.9985 254.356 12.696 253.264 12.2625C252.19 11.7806 251.163 11.2118 250.197 10.5625C249.462 10.0425 248.976 9.75248 248.922 9.81248Z"
    fill="#EB996E" />
  <path
    d="M146.276 123.391C146.276 123.391 131.737 122.991 123.031 120.591C114.325 118.191 80.9048 110.831 80.9048 110.831L27.2752 102.551L26.1951 115.391C26.1951 115.391 76.0225 128.881 85.7007 131.951C95.3789 135.021 139.611 149.071 147.971 147.291L153.156 137.421L146.276 123.391Z"
    fill="#FFBE9D" />
  <path
    d="M1.4917 87.4512C2.36663 87.2712 6.70883 89.1012 6.70883 89.1012C6.29517 88.6366 6.06182 88.057 6.04616 87.4551C6.03049 86.8531 6.23342 86.2638 6.62243 85.7812L12.5849 88.4912C14.161 89.9709 15.8233 91.3697 17.5644 92.6813C20.3072 95.0204 22.8362 97.5658 25.1255 100.291L28.6899 103.361L26.4756 115.511C24.9162 115.632 23.347 115.441 21.8742 114.951C20.0271 114.161 17.3267 110.951 17.3267 110.951L12.2392 110.551C11.647 110.511 11.0819 110.305 10.619 109.961C10.1601 109.547 9.80812 109.043 9.58929 108.485C9.37046 107.928 9.29044 107.331 9.35521 106.741C6.11476 105.041 8.00502 102.881 8.00502 102.881C6.98165 102.765 6.04577 102.289 5.39104 101.551C5.11359 101.152 4.97985 100.681 5.00896 100.207C5.03806 99.7327 5.22854 99.2791 5.55309 98.9113C6.15797 97.9113 10.8242 98.2213 10.8242 98.2213L11.0727 96.9512C11.0727 96.9512 3.94366 91.7113 2.34503 90.5713C0.746407 89.4313 0.670788 87.6212 1.4917 87.4512Z"
    fill="#FFBE9D" />
  <path
    d="M6.62258 88.9531C7.13548 89.9008 7.87416 90.7283 8.78289 91.3731C9.70701 92.1046 10.5767 92.8931 11.3861 93.7331C12.2847 94.8131 12.9353 96.0518 13.2979 97.3731C13.6733 98.7559 14.2094 100.097 14.8966 101.373C15.4857 102.393 16.2116 103.341 17.0569 104.193C17.6281 104.761 18.2535 105.28 18.9255 105.743C19.1598 105.927 19.4265 106.073 19.714 106.173C19.7788 106.103 18.6987 105.413 17.3485 103.943C16.5695 103.087 15.899 102.151 15.3502 101.153C14.7049 99.9086 14.1912 98.6093 13.8164 97.2731C13.4374 95.8858 12.7412 94.59 11.7749 93.4731C10.9297 92.6293 10.0122 91.8501 9.0313 91.1431C8.18132 90.4589 7.37695 89.7275 6.62258 88.9531Z"
    fill="#EB996E" />
  <path
    d="M9.24721 106.713C9.9726 107.169 10.7761 107.507 11.6236 107.713C12.5398 107.999 13.4901 108.18 14.4536 108.253C15.0252 108.293 15.5993 108.293 16.171 108.253C16.8238 108.211 17.4533 108.011 17.9965 107.673C18.2786 107.487 18.5084 107.241 18.6663 106.956C18.8242 106.67 18.9056 106.354 18.9038 106.033C18.7832 105.458 18.4465 104.941 17.9532 104.573C17.559 104.224 17.076 103.973 16.5491 103.843C16.0738 103.723 15.6417 103.633 15.242 103.563C14.3957 103.326 13.5105 103.231 12.6281 103.283C12.6281 103.343 13.6002 103.523 15.1556 103.913L16.4086 104.253C16.8591 104.381 17.2677 104.611 17.5968 104.923C17.9734 105.219 18.2382 105.619 18.3529 106.063C18.3507 106.299 18.2866 106.53 18.1661 106.737C18.0457 106.945 17.8725 107.122 17.6616 107.253C16.6853 107.723 15.579 107.912 14.486 107.793C13.558 107.743 12.6383 107.602 11.7424 107.373C10.1977 107.003 9.27961 106.633 9.24721 106.713Z"
    fill="#EB996E" />
  <path
    d="M7.83179 102.88C8.39631 103.172 9.0231 103.346 9.66806 103.39C10.3564 103.499 11.0546 103.546 11.7527 103.53C12.2112 103.561 12.6712 103.498 13.1004 103.346C13.5297 103.194 13.9177 102.956 14.2371 102.65C14.5106 102.29 14.6663 101.865 14.6855 101.425C14.7046 100.985 14.5865 100.55 14.3451 100.17C13.9808 99.5757 13.4259 99.1004 12.7573 98.8103C12.192 98.5057 11.5532 98.3372 10.8994 98.3203C10.8994 98.4003 11.5799 98.6003 12.5629 99.1303C13.1217 99.4268 13.5786 99.8636 13.8807 100.39C14.0625 100.687 14.1517 101.024 14.1383 101.365C14.125 101.706 14.0096 102.037 13.805 102.32C13.531 102.566 13.2058 102.757 12.8493 102.883C12.4927 103.008 12.1122 103.065 11.7311 103.05C11.0586 103.091 10.3838 103.091 9.71124 103.05C9.09023 102.95 8.46199 102.893 7.83179 102.88Z"
    fill="#EB996E" />
  <path
    d="M11.3538 110.382C11.8255 110.6 12.3327 110.746 12.8552 110.812C14.085 111.129 15.3598 111.27 16.6357 111.232C16.8524 111.241 17.0686 111.206 17.2685 111.128C17.4684 111.05 17.6471 110.932 17.7915 110.782C18.025 110.495 18.1434 110.141 18.1263 109.782C18.1019 109.489 18.008 109.204 17.8512 108.948C17.6943 108.692 17.4785 108.472 17.219 108.302C16.2685 107.772 15.5771 108.102 15.6204 108.142C16.1079 108.19 16.5753 108.348 16.9814 108.602C17.1702 108.751 17.3234 108.934 17.4313 109.141C17.5392 109.347 17.5993 109.573 17.6078 109.802C17.6133 110.05 17.5298 110.293 17.3702 110.492C17.2727 110.587 17.1527 110.66 17.0197 110.705C16.8866 110.75 16.7441 110.766 16.6033 110.752C15.3729 110.778 14.1427 110.691 12.9308 110.492C12.4175 110.363 11.8822 110.325 11.3538 110.382Z"
    fill="#EB996E" />
  <path
    d="M170.935 166.023C171.246 166.244 171.587 166.426 171.951 166.563C172.907 166.976 173.901 167.31 174.921 167.563C178.317 168.481 181.899 168.646 185.377 168.043C188.85 167.437 192.114 166.065 194.893 164.043C195.728 163.439 196.505 162.77 197.215 162.043C197.491 161.785 197.731 161.496 197.928 161.183C197.842 161.113 196.783 162.303 194.688 163.763C191.904 165.662 188.697 166.964 185.301 167.573C181.905 168.163 178.409 168.058 175.061 167.263C172.48 166.653 171 165.953 170.935 166.023Z"
    fill="#FF725E" />
  <path
    d="M195.487 129.043C195.487 129.043 161.311 118.923 160.036 118.603C158.762 118.283 128.615 120.773 128.615 120.773C128.615 120.773 129.889 139.263 122.328 145.253L144.504 152.653L151.492 170.463C151.492 170.463 155.392 177.723 152.292 184.533C146.427 197.423 136.252 217.763 137.753 220.093C137.915 220.333 138.833 213.093 153.296 209.253C157.682 208.103 165.642 208.083 172.847 209.433C203.847 215.213 215.816 228.433 219.294 230.743C219.294 230.743 212.91 184.373 215.924 177.133C218.937 169.893 222.134 165.133 219.65 158.723C217.166 152.313 213.439 141.953 213.439 141.953L225.656 129.153L208.589 102.883L192.97 114.883L195.487 129.043Z"
    fill="#FF725E" />
  <path
    d="M184.124 172.004C184.515 172.05 184.911 172.05 185.302 172.004C186.374 171.964 187.44 171.836 188.488 171.624C191.977 170.922 195.195 169.356 197.799 167.094C200.394 164.816 202.221 161.892 203.059 158.674C203.308 157.689 203.453 156.684 203.491 155.674C203.525 155.313 203.503 154.949 203.427 154.594C203.257 155.919 203.004 157.235 202.67 158.534C201.744 161.637 199.926 164.451 197.41 166.674C194.866 168.868 191.763 170.43 188.391 171.214C185.798 171.954 184.124 171.954 184.124 172.004Z"
    fill="#263238" />
  <path
    d="M216.215 132.801C214.884 134.374 214.06 136.263 213.839 138.251C213.434 140.214 213.629 142.244 214.401 144.111C214.19 142.189 214.19 140.253 214.401 138.331C214.802 136.435 215.41 134.583 216.215 132.801Z"
    fill="#263238" />
  <path
    d="M143.684 138.281C143.684 138.361 144.386 138.811 145.423 139.741C146.765 140.944 147.846 142.373 148.609 143.951C149.367 145.527 149.778 147.227 149.819 148.951C149.819 150.281 149.678 151.101 149.819 151.121C150.126 150.434 150.277 149.695 150.262 148.951C150.342 147.154 149.972 145.364 149.181 143.721C148.399 142.076 147.229 140.614 145.757 139.441C145.158 138.929 144.452 138.534 143.684 138.281Z"
    fill="#263238" />
  <g opacity="0.3">
    <path
      d="M189.201 171.312C192.497 170.706 195.496 169.135 197.755 166.832C199.289 165.468 200.544 163.859 201.46 162.082C202.238 165.222 197.518 170.792 192.916 172.842C190.584 173.848 188.03 174.338 185.458 174.272C182.886 174.206 180.365 173.586 178.097 172.462C181.83 172.425 185.55 172.04 189.201 171.312Z"
      fill="black" />
  </g>
  <path
    d="M147.345 194.292C147.345 194.352 148.241 193.722 150.013 192.982C152.534 191.974 155.249 191.451 157.995 191.442C162.079 191.419 166.125 192.178 169.877 193.672C174.428 195.57 178.77 197.874 182.839 200.552C190.34 205.365 198.34 209.476 206.721 212.822C209.961 214.092 212.597 215.002 214.444 215.592C215.362 215.902 216.086 216.112 216.604 216.252C216.848 216.339 217.102 216.403 217.36 216.442C217.131 216.321 216.889 216.223 216.637 216.152L214.541 215.402C212.716 214.752 210.091 213.802 206.904 212.482C198.585 209.056 190.629 204.918 183.141 200.122C179.043 197.42 174.66 195.108 170.06 193.222C166.239 191.729 162.121 190.997 157.974 191.072C155.182 191.114 152.432 191.704 149.905 192.802C148.988 193.199 148.128 193.699 147.345 194.292Z"
    fill="white" />
  <path
    d="M153.523 177.713C154.172 177.18 154.858 176.685 155.575 176.233C157.591 175.09 159.88 174.423 162.24 174.293C165.745 174.139 169.242 174.735 172.458 176.033C176.413 177.623 180.275 179.406 184.027 181.373C187.814 183.321 191.72 185.064 195.725 186.593C199.023 187.817 202.468 188.67 205.986 189.133C208.356 189.44 210.757 189.477 213.137 189.243C213.783 189.178 214.424 189.081 215.059 188.953C215.285 188.923 215.506 188.87 215.718 188.793C215.718 188.743 214.789 188.913 213.115 189.043C210.753 189.193 208.381 189.102 206.04 188.773C202.57 188.26 199.174 187.38 195.919 186.153C191.948 184.613 188.068 182.877 184.297 180.953C180.524 178.98 176.637 177.201 172.653 175.623C169.358 174.325 165.781 173.757 162.208 173.963C159.796 174.127 157.47 174.864 155.457 176.103C154.716 176.533 154.062 177.077 153.523 177.713Z"
    fill="white" />
  <path
    d="M199.149 165.112C199.149 165.112 199.376 165.322 199.84 165.632C200.121 165.825 200.417 165.999 200.726 166.152C201.119 166.375 201.527 166.575 201.947 166.752C203.038 167.227 204.177 167.599 205.349 167.862C206.787 168.178 208.257 168.352 209.734 168.382C211.216 168.38 212.692 168.235 214.141 167.952C215.32 167.727 216.471 167.392 217.576 166.952C218.001 166.787 218.416 166.6 218.819 166.392C219.132 166.249 219.432 166.081 219.715 165.892C220.19 165.602 220.439 165.422 220.417 165.392C220.396 165.362 219.337 165.942 217.425 166.612C216.327 166.995 215.196 167.293 214.044 167.502C212.619 167.743 211.172 167.86 209.724 167.852C208.289 167.822 206.86 167.664 205.457 167.382C204.308 167.141 203.183 166.806 202.098 166.382C200.251 165.692 199.214 165.032 199.149 165.112Z"
    fill="white" />
  <path
    d="M148.371 162.601C148.495 162.731 148.637 162.845 148.792 162.941C149.221 163.24 149.676 163.505 150.153 163.731C151.913 164.578 153.837 165.092 155.813 165.241C158.736 165.455 161.677 165.205 164.509 164.501C167.749 163.781 171.108 162.611 174.727 161.661C180.932 160.065 187.427 159.677 193.802 160.521C195.736 160.776 197.652 161.14 199.538 161.611C200.867 161.941 201.601 162.151 201.612 162.111C201.623 162.071 201.45 162.021 201.104 161.901C200.759 161.781 200.262 161.601 199.592 161.421C197.72 160.872 195.806 160.451 193.867 160.161C187.434 159.196 180.852 159.537 174.576 161.161C170.925 162.161 167.555 163.301 164.39 164.031C161.612 164.747 158.724 165.031 155.846 164.871C153.909 164.755 152.012 164.308 150.251 163.551C149.008 163.001 148.403 162.551 148.371 162.601Z"
    fill="white" />
  <path
    d="M149.268 147.593C149.494 147.649 149.726 147.683 149.959 147.693C150.413 147.693 151.039 147.813 151.957 147.873C154.414 147.929 156.87 147.764 159.292 147.383C162.359 146.923 165.945 146.083 169.899 145.093C174.137 143.93 178.473 143.094 182.861 142.593C184.014 142.505 185.171 142.472 186.328 142.493C186.9 142.493 187.462 142.493 188.024 142.543L189.676 142.723C191.781 143 193.848 143.479 195.844 144.153C199.689 145.413 203.049 146.863 205.998 147.783C208.306 148.567 210.719 149.058 213.17 149.243C213.834 149.298 214.503 149.298 215.168 149.243C215.404 149.249 215.64 149.229 215.87 149.183C215.636 149.166 215.402 149.166 215.168 149.183C214.507 149.186 213.847 149.149 213.191 149.073C210.773 148.813 208.399 148.273 206.127 147.463C203.222 146.513 199.895 145.033 196.017 143.733C193.994 143.036 191.898 142.537 189.763 142.243L188.067 142.053C187.495 142.053 186.922 142.053 186.339 142.053C185.164 142.032 183.989 142.065 182.817 142.153C178.39 142.657 174.018 143.51 169.748 144.703C165.805 145.703 162.251 146.603 159.205 147.103C156.811 147.515 154.382 147.73 151.947 147.743L149.959 147.673C149.733 147.621 149.501 147.594 149.268 147.593Z"
    fill="white" />
  <path
    d="M138.531 120.762C138.433 120.812 139.535 122.272 140.572 124.922C141.93 128.379 142.302 132.102 141.652 135.732C140.947 139.349 139.268 142.744 136.77 145.602C134.847 147.792 133.303 148.852 133.378 148.932C133.767 148.731 134.13 148.49 134.458 148.212C135.4 147.491 136.271 146.694 137.062 145.832C139.705 142.981 141.48 139.529 142.203 135.832C142.872 132.129 142.447 128.328 140.972 124.832C140.525 123.789 139.979 122.785 139.341 121.832C139.117 121.447 138.845 121.088 138.531 120.762Z"
    fill="white" />
  <path
    d="M195.509 123.952C195.811 124.069 196.133 124.137 196.46 124.152C197.343 124.288 198.233 124.379 199.127 124.422C200.464 124.502 201.806 124.405 203.113 124.132C204.759 123.786 206.26 123.004 207.434 121.882C208.687 120.742 209.594 119.502 210.599 118.472C211.43 117.554 212.415 116.764 213.515 116.132C214.548 115.583 215.706 115.268 216.896 115.212C216.581 115.109 216.245 115.075 215.913 115.112C215.003 115.16 214.116 115.4 213.321 115.812C212.141 116.419 211.088 117.214 210.21 118.162C209.205 119.162 208.244 120.422 207.045 121.512C205.949 122.56 204.563 123.307 203.038 123.672C201.779 123.953 200.486 124.081 199.192 124.052C196.859 123.952 195.509 123.822 195.509 123.952Z"
    fill="white" />
  <path
    d="M197.68 428.472C197.831 428.472 197.961 417.992 197.961 405.062C197.961 392.132 197.831 381.652 197.68 381.652C197.529 381.652 197.399 392.132 197.399 405.062C197.399 417.992 197.518 428.472 197.68 428.472Z"
    fill="#263238" />
  <path
    d="M192.895 416.441C193.057 416.441 193.176 405.961 193.176 393.031C193.176 380.101 193.057 369.621 192.895 369.621C192.733 369.621 192.614 380.101 192.614 393.031C192.614 405.961 192.744 416.441 192.895 416.441Z"
    fill="#263238" />
</svg>