<svg width="100" height="100" viewBox="0 0 100 100" fill="none" xmlns="http://www.w3.org/2000/svg">
<path d="M4.728 70.9186C12.6841 87.7848 29.843 99.4562 49.7281 99.4562C69.6095 99.4562 86.7659 87.789 94.7239 70.928C95.1301 70.0674 93.0664 70.1377 93.0664 70.1377C93.0664 70.1377 96.622 65.7096 97.1238 64.6559C97.4568 63.9564 97.8109 63.7701 98.2433 62.0435C98.3103 61.776 94.698 61.1105 97.4036 59.3379C97.4989 58.8351 99.0092 56.9038 99.083 56.3523C99.4651 53.499 99.4562 52.3568 99.4562 49.7281C99.4562 22.264 77.1922 0 49.7281 0C22.264 0 0 22.264 0 49.7281C0 51.202 0.0641891 52.661 0.189769 54.1023L4.03516 59.921C4.03516 59.921 4.9646 67.0204 6.25604 69.7584" fill="#249BE5"/>
<path d="M24.2685 83.4132C17.9742 83.4132 10.4854 81.9318 6.16135 75.8795C6.04155 75.7118 6.08036 75.4787 6.24811 75.3589C6.41586 75.2387 6.64893 75.2778 6.76872 75.4455C11.487 82.0495 20.2296 82.9764 26.7333 82.5927C34.2571 82.1477 42.951 79.6301 49.4224 76.0226C55.6734 72.5379 60.7169 65.4435 64.7696 59.743C67.9948 55.2064 70.325 51.9285 72.3359 51.6027C72.8539 51.5182 73.3339 51.6348 73.7617 51.9479C76.1759 53.714 74.2 57.179 72.4568 60.2358C71.3365 62.2003 70.1781 64.2318 70.4832 65.3355C70.5614 65.6186 70.7394 65.8348 71.0273 65.997C72.5817 66.8717 77.7004 62.2695 82.217 58.2084C87.8278 53.1636 92.6731 48.8056 94.6735 50.2991C95.056 50.5844 95.2631 50.9948 95.2892 51.518C95.5042 55.823 81.9744 68.2527 81.3984 68.7797C81.2463 68.9191 81.0103 68.9084 80.8711 68.7562C80.7319 68.6043 80.7425 68.3681 80.8944 68.229C84.7465 64.7048 94.7078 54.839 94.5436 51.5553C94.5287 51.2566 94.4279 51.0474 94.2268 50.8974C92.7168 49.7701 87.1717 54.7569 82.7158 58.7635C76.4726 64.3771 72.5455 67.7086 70.6609 66.6473C70.1975 66.3866 69.8958 66.0121 69.7637 65.5346C69.3758 64.1316 70.5573 62.0598 71.8082 59.8661C73.4745 56.9444 75.1974 53.923 73.3208 52.5504C73.0528 52.3543 72.7774 52.2868 72.4552 52.3397C70.7525 52.6155 68.2618 56.1189 65.3779 60.1755C61.2817 65.9373 56.1841 73.1082 49.7859 76.6748C43.2225 80.3334 34.4062 82.8868 26.7773 83.338C25.9712 83.3854 25.1308 83.4132 24.2685 83.4132Z" fill="#ACD9F5"/>
<path d="M84.7503 73.2659C84.6404 73.2659 84.5316 73.2176 84.4581 73.125C84.3297 72.9638 84.3566 72.7289 84.5178 72.6005C88.3449 69.5567 98.8309 58.2096 99.2415 54.2698C99.2793 53.9065 99.2254 53.6339 99.0813 53.4594C98.8739 53.2086 98.6169 53.0916 98.2736 53.0916C98.2713 53.0916 98.2689 53.0916 98.2665 53.0916C96.1585 53.1013 92.1655 57.4531 90.8048 59.1289C90.675 59.2889 90.44 59.3133 90.2799 59.1834C90.1198 59.0536 90.0954 58.8184 90.2255 58.6585C90.2381 58.643 91.5089 57.0827 93.1007 55.5427C95.2878 53.4267 97.0247 52.351 98.2631 52.3452C98.2667 52.3452 98.2702 52.3452 98.2736 52.3452C98.8408 52.3452 99.3058 52.5598 99.6564 52.9836C99.9332 53.3181 100.043 53.7768 99.9839 54.347C99.7318 56.7655 96.4483 61.0742 93.7382 64.2628C90.3658 68.2306 86.7809 71.7545 84.9825 73.1847C84.9138 73.2396 84.8317 73.2659 84.7503 73.2659Z" fill="#ACD9F5"/>
<path d="M85.52 78.4695C85.402 78.4695 85.2862 78.4137 85.2136 78.3097C85.0957 78.1409 85.1373 77.9082 85.3063 77.7902C86.4994 76.9584 91.4375 71.9242 94.7914 67.497C96.189 65.6523 98.5278 62.5649 97.5628 61.7923C97.3019 61.5837 97.0241 61.5059 96.7122 61.5531C95.7968 61.694 94.8164 62.8882 94.516 63.3366C94.4014 63.5077 94.1697 63.5536 93.9984 63.4391C93.8273 63.3247 93.781 63.0931 93.8956 62.9218C93.9469 62.8451 95.1697 61.0366 96.5973 60.8159C97.1198 60.7353 97.6016 60.8676 98.0292 61.2098C99.4466 62.3443 97.671 64.9326 95.3865 67.948C92.1436 72.2287 87.1506 77.4144 85.7334 78.4026C85.6679 78.4478 85.5937 78.4695 85.52 78.4695Z" fill="#ACD9F5"/>
<path d="M88.1192 82.866C88.0302 82.866 87.941 82.8344 87.8697 82.77C87.7165 82.6323 87.704 82.3963 87.8419 82.2431C88.597 81.404 91.5835 77.1731 93.2789 73.9121C94.6366 71.301 94.4465 71.0842 94.2466 70.9239C93.5734 70.3841 92.3277 71.6914 91.2314 72.9164C91.0939 73.07 90.858 73.0832 90.7045 72.9455C90.5509 72.8082 90.5378 72.5721 90.6753 72.4186C91.1437 71.8952 93.54 69.3373 94.732 70.3569C95.3321 70.8702 95.0955 72.0364 93.9412 74.2564C92.3161 77.3821 89.291 81.7484 88.3966 82.7424C88.3231 82.8243 88.2214 82.866 88.1192 82.866Z" fill="#ACD9F5"/>
<path d="M8.93717 58.896C8.93717 58.896 2.75352 50.648 0.609151 53.2398C-1.59755 55.9071 10.457 69.5184 14.7023 72.8949L19.5504 70.4381" fill="white"/>
<path d="M5.48268 63.131C5.48268 63.131 3.85761 59.2688 2.22694 60.5741C1.04652 61.519 2.37976 65.1086 4.36161 67.7246C7.66456 72.0849 12.6295 77.1913 13.9307 78.0985L17.68 74.8166" fill="white"/>
<path d="M49.7337 56.3466C49.7337 56.3466 46.1533 53.9081 42.1506 49.3128C38.0255 44.5771 37.1759 39.5521 41.3022 37.5372C46.1701 35.1603 49.7337 40.9421 49.7337 40.9421C49.7337 40.9421 53.2974 35.1603 58.1653 37.5374C62.2915 39.5523 61.4419 44.5773 57.3168 49.313C53.3142 53.9081 49.7337 56.3466 49.7337 56.3466Z" fill="white"/>
<path d="M18.3134 68.4755C18.3134 68.4755 1.55721 53.1458 5.00963 50.5693C8.46205 47.9926 24.9802 68.3408 28.6155 66.2932C32.2509 64.2455 21.8215 55.2174 25.9182 52.2203C29.9875 49.2433 38.7105 71.5405 49.6339 76.2277C49.7076 76.2592 49.6048 76.32 49.6048 76.32C37.6822 82.9662 15.8772 87.9182 7.36597 76.0056" fill="white"/>
<path d="M24.2055 83.4157C13.8182 83.4157 8.67134 79.3994 6.15676 75.8798C6.03696 75.7121 6.07577 75.479 6.24352 75.3592C6.41127 75.2391 6.64415 75.2781 6.76413 75.4458C9.36847 79.0908 14.9453 83.2902 26.7287 82.593C34.0439 82.1603 42.465 79.7685 48.8744 76.3206C43.2649 73.572 38.2759 66.4324 34.2396 60.6565C31.2389 56.3623 28.6475 52.6539 26.9179 52.3666C26.6212 52.3175 26.3719 52.3757 26.1331 52.5505C24.2567 53.9232 25.9795 56.9445 27.6456 59.8663C28.8966 62.0599 30.0781 64.1317 29.6902 65.5345C29.5581 66.0122 29.2564 66.3863 28.793 66.6474C26.9082 67.7097 22.9815 64.3774 16.7381 58.7637C12.2822 54.7572 6.73652 49.7712 5.22713 50.8975C5.02598 51.0477 4.92522 51.2569 4.91029 51.5554C4.74627 54.8393 14.7076 64.7051 18.5595 68.2292C18.7116 68.3682 18.722 68.6044 18.5828 68.7563C18.4436 68.9086 18.2078 68.9192 18.0555 68.7798C17.4795 68.2529 3.9495 55.8231 4.16465 51.5181C4.19077 50.9947 4.39789 50.5846 4.78042 50.2992C6.78036 48.8054 11.6259 53.1635 17.2369 58.2085C21.7535 62.2698 26.8728 66.8713 28.4266 65.9971C28.7143 65.8349 28.8923 65.6187 28.9707 65.3356C29.2759 64.2317 28.1174 62.2004 26.9972 60.2359C25.2538 57.1789 23.278 53.7142 25.6922 51.948C26.0926 51.6551 26.5462 51.5481 27.0399 51.6302C29.0793 51.9689 31.6263 55.6141 34.8511 60.2286C38.9781 66.1344 44.1141 73.4843 49.7755 75.9136C49.9214 75.9763 50.0177 76.1094 50.0274 76.2609C50.0377 76.4228 49.9487 76.5758 49.7891 76.6701C43.2175 80.3335 34.4012 82.8867 26.7726 83.3379C25.8834 83.3906 25.0279 83.4157 24.2055 83.4157Z" fill="#ACD9F5"/>
<path d="M9.50479 78.5222C7.20927 75.2793 4.19107 71.0555 5.09625 70.2098C6.19568 69.183 8.49903 72.6892 8.49903 72.6892L11.4728 75.8583" fill="white"/>
<path d="M18.036 35.7842L15.7048 34.909L14.3535 38.5094L16.6848 39.3844C17.0894 39.5363 17.294 39.9871 17.1423 40.3916C16.9905 40.7962 16.5396 41.0009 16.1351 40.8492L10.1756 38.6124C9.77102 38.4605 9.56632 38.0097 9.71802 37.6052V37.605C9.86991 37.2005 10.3207 36.9958 10.7253 37.1475L13.0452 38.0183L14.3966 34.4179L12.0764 33.5471C11.6719 33.3952 11.4672 32.9444 11.6189 32.5398C11.7708 32.1353 12.2216 31.9306 12.6261 32.0823L18.5857 34.319C18.9902 34.4709 19.1949 34.9217 19.0432 35.3263V35.3265C18.8913 35.7312 18.4403 35.9359 18.036 35.7842Z" fill="white"/>
<path d="M16.4933 31.3519C14.6307 30.0359 14.1006 27.5998 15.506 25.6103C16.9116 23.621 19.385 23.307 21.2476 24.6231C23.1003 25.9324 23.6403 28.3751 22.2349 30.3648C20.8292 32.3541 18.3462 32.6611 16.4933 31.3519ZM20.345 25.9007C19.1066 25.0257 17.5015 25.2073 16.647 26.4166C15.7926 27.6258 16.1574 29.1993 17.3959 30.0747C18.6149 30.9358 20.2394 30.7679 21.0938 29.5585C21.9485 28.3494 21.5641 26.762 20.345 25.9007Z" fill="white"/>
<path d="M27.7843 21.8507L26.3122 15.6279C26.2422 15.3321 26.3499 15.0226 26.5884 14.8341L26.98 14.5246C27.3189 14.2566 27.8109 14.3143 28.0789 14.6533L32.0262 19.6478C32.2941 19.9868 32.2365 20.4787 31.8974 20.7466C31.5586 21.0144 31.0665 20.9569 30.7987 20.6179L28.203 17.3336L29.3593 22.1752C29.4301 22.4715 29.3224 22.7818 29.0835 22.9707L28.5366 23.403C28.2976 23.5919 27.9709 23.6249 27.699 23.4876L23.2556 21.2439L25.8513 24.5284C26.1193 24.8674 26.0616 25.3593 25.7226 25.6273C25.3837 25.8952 24.8916 25.8376 24.6237 25.4985L20.6764 20.5041C20.4085 20.1652 20.4661 19.6731 20.8052 19.4052L21.2341 19.0661C21.4726 18.8777 21.7986 18.8445 22.0703 18.9809L27.7843 21.8507Z" fill="white"/>
<path d="M32.7414 13.1472L33.4795 14.8577L36.4345 13.5825C36.7887 13.4297 37.1999 13.5929 37.3527 13.9471C37.5056 14.3013 37.3423 14.7125 36.9881 14.8653L34.0332 16.1406L34.776 17.8621L37.8078 16.5537C38.162 16.4009 38.5733 16.5639 38.7261 16.9183C38.8789 17.2724 38.7158 17.6837 38.3615 17.8365L34.5347 19.4879C34.1806 19.6407 33.7693 19.4775 33.6165 19.1233L31.028 13.1255C30.8752 12.7714 31.0385 12.3601 31.3926 12.2073L35.2194 10.5559C35.5735 10.4031 35.9848 10.5662 36.1376 10.9205C36.2904 11.2747 36.1273 11.6859 35.773 11.8387L32.7414 13.1472Z" fill="white"/>
<path d="M42.7576 8.51179C43.1873 8.46794 43.5713 8.78087 43.6152 9.2106L44.0028 13.0067C44.1423 14.373 44.9398 15.0121 46.1279 14.8908C47.3162 14.7695 47.9562 13.9839 47.8168 12.6173L47.4292 8.82118C47.3854 8.39144 47.6981 8.00742 48.128 7.96357C48.5578 7.91972 48.9418 8.23246 48.9856 8.66238L49.3745 12.4706C49.6001 14.6805 48.3492 16.0688 46.2699 16.2811C44.1787 16.4946 42.6731 15.3877 42.4475 13.1777L42.0588 9.36958C42.0149 8.93966 42.3279 8.55564 42.7576 8.51179Z" fill="white"/>
<path d="M59.3185 9.77596L58.3896 16.0725C58.3265 16.4998 57.9291 16.795 57.5018 16.7321L56.9983 16.6579C56.7474 16.6209 56.5298 16.4643 56.415 16.2382L53.5116 10.5188L52.8137 15.25C52.7506 15.6773 52.3532 15.9727 51.9259 15.9096C51.4986 15.8465 51.2034 15.4491 51.2663 15.0218L52.1949 8.72523C52.258 8.29793 52.6555 8.00254 53.0828 8.06561L53.5864 8.13988C53.8374 8.17683 54.0548 8.33338 54.1697 8.55954L57.073 14.2789L57.7708 9.54776C57.8339 9.12045 58.2314 8.82507 58.6587 8.88814H58.6589C59.0862 8.95121 59.3815 9.34866 59.3185 9.77596Z" fill="white"/>
<path d="M60.5781 17.7079C60.1691 17.5693 59.9498 17.125 60.0885 16.716L62.1326 10.688C62.2713 10.2789 62.7154 10.0597 63.1246 10.1983C63.5336 10.337 63.7529 10.7813 63.6142 11.1903L61.57 17.2183C61.4314 17.6275 60.9873 17.8466 60.5781 17.7079Z" fill="white"/>
<path d="M71.7399 14.93C71.5606 15.2716 71.1384 15.4033 70.7967 15.224L69.1311 14.35L66.4204 19.5158C66.2411 19.8574 65.8188 19.989 65.4772 19.8098L65.3292 19.7322C64.9876 19.5529 64.856 19.1306 65.0351 18.789L67.7458 13.6232L66.0698 12.7436C65.7282 12.5643 65.5966 12.142 65.7759 11.8003C65.9552 11.4587 66.3775 11.3271 66.7192 11.5065L71.4461 13.9869C71.7877 14.166 71.9193 14.5883 71.7399 14.93Z" fill="white"/>
<path d="M74.5032 17.9027L73.3175 19.3398L75.8006 21.3879C76.0982 21.6335 76.1406 22.0738 75.895 22.3715C75.6494 22.6691 75.2091 22.7114 74.9114 22.4659L72.4284 20.4178L71.2351 21.8643L73.7827 23.9656C74.0803 24.2111 74.1227 24.6515 73.8771 24.9491C73.6316 25.2467 73.1912 25.2891 72.8936 25.0435L69.6779 22.3912C69.3803 22.1457 69.338 21.7053 69.5835 21.4077L73.7404 16.3679C73.9859 16.0703 74.4263 16.0279 74.7239 16.2735L77.9395 18.9256C78.2372 19.1711 78.2795 19.6115 78.034 19.9091C77.7884 20.2068 77.348 20.2491 77.0504 20.0035L74.5032 17.9027Z" fill="white"/>
<path d="M83.1883 24.6716C83.4249 25.033 83.3234 25.518 82.962 25.7544L79.7689 27.843C78.6197 28.5948 78.4189 29.5966 79.0726 30.596C79.7264 31.5954 80.7182 31.8029 81.8676 31.051L85.0607 28.9624C85.4223 28.7259 85.9071 28.8273 86.1435 29.1889C86.3799 29.5503 86.2786 30.0351 85.9169 30.2715L82.714 32.3666C80.8551 33.5827 79.0476 33.1097 77.9035 31.3607C76.753 29.6018 77.0441 27.7562 78.9028 26.5402L82.1057 24.445C82.467 24.2086 82.9517 24.3099 83.1883 24.6716Z" fill="white"/>
<path d="M82.7791 35.2906L82.7976 35.3415C82.8677 35.5352 82.8554 35.7528 82.7492 35.9293C82.421 36.4743 82.4404 37.1616 82.7086 37.902C83.05 38.8454 83.6597 39.336 84.2437 39.1246C84.7828 38.9294 84.9179 38.4612 84.6867 37.5417L84.3467 36.2167C83.9276 34.603 84.5492 33.6539 85.6609 33.2513C87.0311 32.7553 88.4113 33.5507 89.0702 35.3701C89.5093 36.5828 89.3604 37.6268 88.9323 38.4179C88.6397 38.9587 87.8471 38.9029 87.6379 38.3248C87.5661 38.1265 87.5872 37.9074 87.6941 37.7255C87.9799 37.2386 87.9956 36.5059 87.7482 35.8231C87.3905 34.8349 86.7663 34.5147 86.2386 34.7058C85.7445 34.8847 85.606 35.3794 85.7714 36.0816L86.1328 37.5004C86.5071 38.9906 86.0005 40.1522 84.8326 40.5752C83.6197 41.0144 82.1268 40.399 81.3949 38.3778C80.9072 37.0304 81.0253 35.9713 81.5035 35.1648C81.8077 34.6513 82.5759 34.7293 82.7791 35.2906Z" fill="white"/>
<path d="M14.6969 73.278C14.6155 73.278 14.5336 73.2515 14.4647 73.1968C12.3788 71.5376 8.71158 67.6232 5.74506 63.8888C5.61687 63.7274 5.64374 63.4927 5.80515 63.3643C5.96674 63.2359 6.20148 63.263 6.32948 63.4244C9.26521 67.1201 12.882 70.9842 14.9294 72.6124C15.0906 72.7408 15.1175 72.9755 14.9891 73.1369C14.9156 73.2297 14.8068 73.278 14.6969 73.278Z" fill="#ACD9F5"/>
<path d="M6.03969 64.0195C5.92978 64.0195 5.82081 63.9712 5.7473 63.8785C5.42038 63.4668 5.10204 63.0578 4.80088 62.6619C4.67604 62.4978 4.70777 62.2636 4.87178 62.1388C5.03599 62.014 5.26998 62.0455 5.39481 62.2099C5.69281 62.6014 6.00816 63.0067 6.33172 63.414C6.45991 63.5754 6.43304 63.8102 6.27163 63.9385C6.20296 63.993 6.12105 64.0195 6.03969 64.0195Z" fill="#ACD9F5"/>
<path d="M3.99538 61.2756C3.87763 61.2756 3.76195 61.22 3.68917 61.1162C0.438466 56.4705 -0.489855 53.9455 0.679362 52.9293C1.16955 52.5033 1.70938 52.3107 2.28018 52.3503C3.87148 52.4669 5.53891 54.4107 7.64988 56.8717C8.14996 57.4546 8.66703 58.0573 9.21599 58.6753C9.35296 58.8293 9.33896 59.0653 9.18483 59.2021C9.03089 59.3391 8.79484 59.3253 8.65806 59.1709C8.1048 58.5483 7.58551 57.943 7.08356 57.3574C5.1646 55.1205 3.50743 53.1883 2.22588 53.0944C1.85418 53.067 1.5086 53.1974 1.16918 53.4924C0.727318 53.8766 0.546504 55.3222 4.30102 60.688C4.41914 60.8569 4.37809 61.0895 4.20922 61.2077C4.14391 61.2537 4.06927 61.2756 3.99538 61.2756Z" fill="#ACD9F5"/>
<path d="M6.79283 71.0312C6.68871 71.0312 6.58533 70.9881 6.51162 70.9034C5.82439 70.1165 4.62419 68.5491 4.04668 67.6289C3.13963 66.1843 1.07568 62.647 1.49757 61.0066C1.58415 60.6694 1.7743 60.4114 2.0471 60.2599C3.52066 59.4413 4.19913 60.4526 4.98451 61.6235C5.1142 61.8168 5.2519 62.0225 5.4023 62.2354C5.52116 62.4037 5.48105 62.6365 5.31274 62.7554C5.14424 62.8743 4.91137 62.834 4.79251 62.6658C4.63838 62.4477 4.49731 62.2374 4.36445 62.0394C3.52514 60.7881 3.2458 60.448 2.4091 60.9128C2.3507 60.9452 2.26729 61.0096 2.22027 61.1927C1.98478 62.1079 2.94986 64.4784 4.67868 67.2322C5.19052 68.0475 6.33193 69.5632 7.07365 70.4126C7.20931 70.5679 7.19326 70.8037 7.03802 70.9392C6.96748 71.0009 6.87997 71.0312 6.79283 71.0312Z" fill="#ACD9F5"/>
<path d="M9.81206 79.4542C8.09723 77.3276 5.37739 73.0984 4.6868 71.2367C4.40914 70.4888 4.61832 69.8976 5.2464 69.6556C6.2363 69.2744 7.17171 70.4431 8.07633 71.5733C8.32021 71.8782 8.55066 72.1661 8.77849 72.4216L8.93654 72.5988C9.68573 73.4406 10.3327 74.1674 12.4593 76.2694C12.606 76.4144 12.6073 76.6506 12.4625 76.7973C12.3177 76.9437 12.0813 76.945 11.9348 76.8004C9.79116 74.6816 9.13676 73.9464 8.37918 73.0954L8.22169 72.9185C7.98061 72.6481 7.73299 72.3389 7.49378 72.0398C6.82613 71.2055 5.99522 70.168 5.5151 70.3522C5.38971 70.4005 5.20012 70.4735 5.38691 70.9773C6.08459 72.8576 9.11941 77.5233 10.7294 79.3895C10.8641 79.5456 10.8466 79.7813 10.6906 79.9159C10.6196 79.9765 9.93484 79.6065 9.81206 79.4542Z" fill="#ACD9F5"/>
</svg>
